<?xml version="1.0" encoding="UTF-8" standalone="no"?>
<!-- Created with Inkscape (http://www.inkscape.org/) -->

<svg
   xmlns:dc="http://purl.org/dc/elements/1.1/"
   xmlns:cc="http://creativecommons.org/ns#"
   xmlns:rdf="http://www.w3.org/1999/02/22-rdf-syntax-ns#"
   xmlns:svg="http://www.w3.org/2000/svg"
   xmlns="http://www.w3.org/2000/svg"
   xmlns:sodipodi="http://sodipodi.sourceforge.net/DTD/sodipodi-0.dtd"
   xmlns:inkscape="http://www.inkscape.org/namespaces/inkscape"
   id="svg2"
   version="1.1"
   inkscape:version="0.48.4 r9939"
   width="165"
   height="50"
   xml:space="preserve"
   sodipodi:docname="zelena_pozitiv_CMYK.ai"><metadata
     id="metadata8"><rdf:RDF><cc:Work
         rdf:about=""><dc:format>image/svg+xml</dc:format><dc:type
           rdf:resource="http://purl.org/dc/dcmitype/StillImage" /><dc:title></dc:title></cc:Work></rdf:RDF></metadata><defs
     id="defs6"><clipPath
       clipPathUnits="userSpaceOnUse"
       id="clipPath20"><path
         d="m 0,85.04 283.46,0 L 283.46,0 0,0 0,85.04 z"
         id="path22"
         inkscape:connector-curvature="0" /></clipPath></defs><sodipodi:namedview
     pagecolor="#ffffff"
     bordercolor="#666666"
     borderopacity="1"
     objecttolerance="10"
     gridtolerance="10"
     guidetolerance="10"
     inkscape:pageopacity="0"
     inkscape:pageshadow="2"
     inkscape:window-width="1861"
     inkscape:window-height="1200"
     id="namedview4"
     showgrid="false"
     inkscape:zoom="4"
     inkscape:cx="66.451718"
     inkscape:cy="66.37272"
     inkscape:window-x="0"
     inkscape:window-y="0"
     inkscape:window-maximized="1"
     inkscape:current-layer="g16" /><g
     id="g10"
     inkscape:groupmode="layer"
     inkscape:label="zelena_pozitiv_CMYK"
     transform="matrix(1.25,0,0,-1.25,0,49.999997)"><g
       id="g16"
       transform="matrix(0.58196956,0,0,0.58196956,-16.56007,-4.765879)"><g
         id="g18"
         clip-path="url(#clipPath20)"><g
           id="g24"
           transform="translate(46.0732,58.6294)"><path
             d="M 0,0 C -0.187,-0.311 0.123,-0.513 0.366,-0.277 1.048,0.161 0.967,-0.019 1.642,-0.056 2.186,-0.085 2.649,0.325 2.681,0.86 2.691,1.05 2.644,1.231 2.557,1.386 1.939,1.473 1.341,1.422 0.763,1.256 L 0,0 z m 2.102,6.537 c 1.404,3.38 4.782,5.764 8.724,5.768 4.853,0.005 8.789,-3.867 8.789,-8.641 0,-4.775 -3.936,-8.645 -8.789,-8.645 -3.226,0 -5.844,2.572 -5.844,5.746 0,3.174 2.618,5.747 5.844,5.747 2.092,0 3.791,-1.669 3.791,-3.729 0,-2.06 -1.699,-3.73 -3.791,-3.73 -1.206,0 -2.183,0.962 -2.183,2.147 0,0.886 0.545,1.645 1.324,1.974 0.192,0.071 0.233,0.013 0.082,-0.138 -0.2,-0.194 -0.322,-0.464 -0.322,-0.761 0,-0.596 0.494,-1.081 1.099,-1.081 0.862,0 1.561,0.689 1.561,1.536 0,0.85 -0.699,1.539 -1.561,1.539 -1.767,0 -3.201,-1.411 -3.201,-3.148 0,-1.738 1.434,-3.147 3.201,-3.147 2.682,0 4.859,2.141 4.859,4.78 0,2.639 -2.177,4.778 -4.859,4.778 -3.865,0 -6.997,-3.081 -6.997,-6.882 0,-3.8 3.132,-6.881 6.997,-6.881 1.897,0 3.679,0.496 5.216,1.365 0.213,-0.543 0.47,-1.163 0.573,-1.866 0.181,-1.251 0.141,-2.545 0.343,-3.787 0.133,-0.818 0.918,-1.64 1.361,-2.31 0.361,-0.546 0.868,-1.555 1.521,-1.835 0.553,-0.235 1.768,-0.203 2.361,-0.312 2.248,-0.417 3.845,-1.037 5.795,-2.212 1.596,-0.965 2.859,-2.576 2.9,-4.477 0.023,-1.113 -0.172,-2.344 -0.252,-3.462 -0.074,-1.022 -0.238,-2.041 -0.184,-3.071 0.069,-1.257 1.29,-2.256 2.41,-2.636 0.984,-0.333 2.992,-0.563 3.728,-1.207 0.675,-0.587 0.767,-2.012 0.968,-2.813 0.141,-0.556 0.369,-1.31 0.503,-1.715 0.135,-0.404 0.503,-1.133 0.594,-1.304 0.429,-0.787 0.122,-0.764 -0.147,-1.421 -0.104,-0.285 -0.178,-0.677 -0.203,-0.911 -0.024,-0.237 -0.067,-1.182 -0.048,-1.337 0.019,-0.159 0.129,-0.455 0.227,-0.703 0.098,-0.247 0.179,-0.414 0.258,-0.642 0.078,-0.232 0.148,-0.406 0,-0.666 -0.148,-0.26 -0.368,-0.357 -0.649,-0.444 -0.684,-0.222 -1.434,-0.441 -2.154,-0.454 -0.49,-0.012 -0.821,0.023 -0.992,0.13 -0.447,0.285 0.106,1.362 0.244,1.69 0.185,0.443 0.547,1.08 0.841,1.742 0.293,0.664 0.308,0.902 0.319,1.63 0.02,1.262 -0.317,2.225 -0.895,3.329 -0.475,0.912 -0.883,1.671 -1.92,2.014 -1.31,0.437 -3.55,0.271 -5.181,0.532 -1.983,0.311 -4.389,0.78 -6.021,1.962 -0.149,0.107 -0.296,0.273 -0.41,0.057 -0.05,-0.088 -0.161,-0.385 -0.277,-0.627 -0.219,-0.456 -0.595,-0.772 -0.381,-1.296 0.374,-0.913 0.75,-1.462 0.51,-2.461 -0.123,-0.511 -0.374,-0.595 -0.773,-0.747 -1.033,-0.391 -2.343,-0.518 -3.433,-0.657 -0.742,-0.097 -1.693,-0.212 -2.557,-0.561 -0.508,-0.204 -0.938,-0.658 -1.09,-0.816 -0.31,-0.314 -0.525,-0.588 -0.996,-0.637 -0.11,-0.013 -0.324,-0.006 -0.485,-0.08 -0.412,-0.185 -0.343,-0.593 -0.343,-0.945 0,-0.207 -0.011,-0.453 -0.139,-0.683 -0.414,-0.739 -1.889,-0.774 -2.59,-0.531 -0.426,0.151 -0.653,0.294 -0.69,0.517 -0.037,0.226 0.035,0.389 0.177,0.806 0.14,0.414 0.489,1.108 0.803,1.622 0.534,0.875 1.41,1.599 2.385,1.955 0.523,0.187 1.164,0.117 1.71,0.185 1.367,0.168 2.625,0.821 3.526,1.852 0.52,0.594 0.492,0.865 0.031,1.469 -1.07,1.419 -2.143,2.717 -2.483,4.497 -0.059,0.306 -0.004,0.307 -0.356,0.36 -1.5,0.217 -3.133,0.651 -4.537,1.192 -2.104,0.812 -3.991,1.751 -5.763,3.151 -0.869,0.686 -2.024,1.751 -2.295,2.046 -0.155,0.171 -0.718,0.709 -0.718,0.709 -0.918,-0.186 -1.856,-0.169 -2.781,-0.024 -0.565,0.092 -1.277,0.129 -1.644,0.129 -1.135,0 -2.268,-0.125 -3.397,-0.217 -0.367,-0.031 -1.387,-0.177 -1.484,-0.199 -0.269,-0.066 -0.197,-0.166 -0.025,-0.324 0.142,-0.125 0.425,-0.402 0.871,-0.799 0.447,-0.398 1.104,-0.843 1.447,-1.033 0.443,-0.238 1.284,-0.221 1.439,-0.684 0.032,-0.088 0.119,-0.252 0.21,-0.273 0.092,-0.026 0.18,-0.014 0.278,0.021 0.098,0.037 0.164,0.092 0.323,0.237 0.158,0.146 0.549,0.541 0.766,0.697 0.522,0.367 1.179,0.189 1.656,-0.164 0.721,-0.533 1.276,-2.289 1.276,-3.151 0,-0.454 -0.679,-0.336 -0.953,-0.281 -0.526,0.102 -1.023,0.217 -1.567,0.203 -1.151,-0.029 -2.135,-0.074 -3.108,0.641 -0.216,0.156 -0.693,0.584 -1.005,0.854 -0.315,0.271 -1.135,0.923 -1.664,1.322 -0.872,0.66 -1.84,1.166 -2.611,1.949 -0.431,0.437 -0.7,0.852 -0.637,1.49 0.024,0.254 0.183,0.59 0.36,1.03 0.147,0.366 0.363,0.866 0.748,1.044 0.459,0.213 1.516,0.274 2.005,0.344 1.296,0.186 2.633,0.307 3.908,0.602 0.521,0.121 1.372,0.393 1.648,0.568 0.593,0.374 0.881,0.535 0.217,1.031 -0.23,0.169 -0.72,0.615 -1.088,0.922 -0.803,0.673 -1.722,1.351 -2.684,1.787 -0.767,0.344 -2.075,0.232 -2.876,0.064 -0.552,-0.114 -1.05,-0.463 -1.203,-0.591 -0.154,-0.125 -0.815,-0.855 -0.949,-1.005 -0.163,-0.183 -0.663,-0.914 -0.895,-0.972 -0.424,-0.104 -1.073,0.15 -1.154,-0.495 -0.07,-0.537 -0.051,-1.176 -0.246,-1.682 -0.072,-0.194 -0.207,-0.391 -0.655,-0.616 -0.77,-0.384 -2.387,-0.327 -3.132,0.18 -0.4,0.274 -0.042,0.631 0.195,0.879 0.708,0.752 1.438,1.394 2.054,2.252 0.173,0.244 0.636,0.834 0.846,1.044 0.508,0.515 1.101,0.777 1.729,1.117 0.257,0.137 0.632,0.356 1.072,0.597 1.072,0.583 1.969,1.192 2.895,1.965 0.419,0.35 1.025,0.671 1.587,0.682 0.685,0.012 1.255,-0.455 1.773,-0.834 1.375,-1.001 2.695,-1.195 4.279,-1.748 0.173,-0.06 0.39,-0.114 0.425,-0.114 0.049,0 0.049,0.084 0.281,0.513 0.495,0.908 1.146,1.681 1.803,2.473 0.355,0.427 0.864,1.122 1.011,1.338 0.346,0.506 0.542,1.118 0.76,1.684 C 2.554,-6.752 1.908,-7.298 1.36,-7.746 0.906,-8.115 0.42,-8.678 -0.216,-8.698 c -0.374,-0.011 -0.643,0.067 -1.153,0.194 -0.51,0.126 -1.072,0.373 -1.38,0.698 -0.688,0.73 -1.196,1.799 -0.95,2.794 0.313,1.261 1.07,2.545 1.71,3.69 0.308,0.549 0.91,1.562 1.118,1.913 0.207,0.349 0.439,0.718 0.538,0.946 0.1,0.23 0.16,0.929 0.222,1.242 0.061,0.315 0.305,0.803 0.494,1.068 0.718,0.999 1.273,1.413 1.719,2.69"
             style="fill:#006651;fill-opacity:1;fill-rule:evenodd;stroke:none"
             id="path26"
             inkscape:connector-curvature="0" /></g><g
           id="g28"
           transform="translate(98.6367,32.2266)"><path
             d="m 0,0 c -0.424,0.211 -0.454,0.332 -0.454,1.154 0,1.516 0.121,2.733 0.151,3.219 0.031,0.334 0.091,0.485 0.242,0.485 0.181,0 0.211,-0.09 0.211,-0.335 0,-0.273 0,-0.697 0.091,-1.123 0.454,-2.246 2.448,-3.097 4.474,-3.097 2.902,0 4.324,2.094 4.324,4.039 0,2.096 -0.877,3.309 -3.477,5.468 l -1.36,1.124 c -3.204,2.641 -3.931,4.524 -3.931,6.59 0,3.25 2.418,5.467 6.258,5.467 1.179,0 2.055,-0.121 2.812,-0.303 0.575,-0.122 0.816,-0.152 1.058,-0.152 0.242,0 0.302,-0.061 0.302,-0.213 0,-0.153 -0.121,-1.155 -0.121,-3.22 0,-0.485 -0.06,-0.698 -0.211,-0.698 -0.181,0 -0.212,0.151 -0.243,0.394 -0.029,0.365 -0.21,1.185 -0.392,1.52 -0.182,0.333 -0.998,1.61 -3.779,1.61 -2.085,0 -3.718,-1.306 -3.718,-3.524 0,-1.731 0.786,-2.825 3.687,-5.103 L 6.771,12.634 C 10.338,9.81 11.185,7.926 11.185,5.496 11.185,4.25 10.701,1.942 8.616,0.455 7.315,-0.457 5.682,-0.82 4.051,-0.82 2.628,-0.82 1.238,-0.607 0,0"
             style="fill:#006651;fill-opacity:1;fill-rule:nonzero;stroke:none"
             id="path30"
             inkscape:connector-curvature="0" /></g><g
           id="g32"
           transform="translate(123.5293,35.2031)"><path
             d="m 0,0 c 1.541,3.461 5.018,12.27 5.592,14.122 0.121,0.395 0.241,0.76 0.241,0.972 0,0.212 -0.09,0.456 -0.362,0.547 -0.302,0.091 -0.604,0.091 -0.907,0.091 -0.151,0 -0.303,0.091 -0.303,0.212 0,0.152 0.182,0.213 0.606,0.213 1.057,0 2.267,-0.061 2.6,-0.061 0.151,0 1.299,0.061 2.085,0.061 0.272,0 0.424,-0.061 0.424,-0.182 0,-0.121 -0.091,-0.243 -0.303,-0.243 -0.181,0 -0.785,0 -1.269,-0.304 C 8.041,15.185 7.618,14.821 6.922,13.059 6.62,12.331 5.32,9.232 3.96,6.075 2.327,2.308 1.148,-0.486 0.543,-1.764 c -0.725,-1.547 -0.876,-1.943 -1.148,-1.943 -0.303,0 -0.483,0.334 -0.998,1.58 l -6.529,15.824 c -0.606,1.458 -0.968,1.731 -1.845,1.944 -0.423,0.091 -0.876,0.091 -1.028,0.091 -0.151,0 -0.21,0.152 -0.21,0.243 0,0.151 0.271,0.182 0.694,0.182 1.271,0 2.782,-0.061 3.114,-0.061 0.272,0 1.451,0.061 2.479,0.061 0.483,0 0.725,-0.061 0.725,-0.182 0,-0.121 -0.09,-0.243 -0.272,-0.243 -0.302,0 -0.725,-0.03 -0.967,-0.122 -0.272,-0.121 -0.302,-0.272 -0.302,-0.455 0,-0.334 0.332,-1.124 0.725,-2.156 L 0,0 z"
             style="fill:#006651;fill-opacity:1;fill-rule:nonzero;stroke:none"
             id="path34"
             inkscape:connector-curvature="0" /></g><g
           id="g36"
           transform="translate(145.248,32.5586)"><path
             d="m 0,0 c 2.389,0 7.195,1.277 7.195,8.749 0,6.195 -3.748,9.446 -7.949,9.446 -4.445,0 -7.649,-2.795 -7.649,-8.414 C -8.403,3.769 -4.805,0 0,0 m -0.604,19.167 c 5.985,0 10.52,-3.676 10.52,-9.689 0,-5.771 -4.262,-10.541 -10.67,-10.541 -7.287,0 -10.4,5.499 -10.4,10.146 0,4.16 3.204,10.084 10.55,10.084"
             style="fill:#006651;fill-opacity:1;fill-rule:nonzero;stroke:none"
             id="path38"
             inkscape:connector-curvature="0" /></g><g
           id="g40"
           transform="translate(162.8555,40.4863)"><path
             d="m 0,0 c 0,-2.004 0,-5.101 0.031,-5.498 0.09,-1.244 0.09,-1.549 0.908,-1.942 0.725,-0.335 1.844,-0.366 2.329,-0.366 1.752,0 3.898,0.669 3.898,3.98 0,1.154 -0.455,3.369 -2.541,4.707 C 3.721,1.458 2.873,1.429 2.238,1.55 1.906,1.611 0.576,1.611 0.152,1.611 0.063,1.611 0,1.55 0,1.429 L 0,0 z M 0,2.856 C 0,2.674 0.063,2.613 0.184,2.583 0.334,2.552 0.818,2.461 1.816,2.461 c 1.481,0 2.055,0.061 2.598,0.668 0.576,0.638 1.027,1.519 1.027,2.764 0,1.975 -1.086,4.162 -3.748,4.162 -0.3,0 -0.937,-0.032 -1.359,-0.123 C 0.092,9.872 0,9.811 0,9.66 L 0,2.856 z m -2.297,0.546 c 0,4.01 0,4.739 -0.058,5.559 -0.063,0.88 -0.211,1.366 -1.09,1.488 -0.211,0.031 -0.664,0.06 -0.907,0.06 -0.089,0 -0.211,0.061 -0.211,0.152 0,0.152 0.122,0.213 0.422,0.213 1.209,0 2.934,-0.061 3.084,-0.061 0.635,0 1.875,0.061 3.114,0.061 C 6.5,10.874 7.65,8.293 7.65,6.926 7.65,4.89 6.32,3.615 4.959,2.4 6.984,1.793 9.646,-0.06 9.646,-2.977 c 0,-2.885 -2.146,-5.74 -6.683,-5.74 -0.483,0 -1.449,0.032 -2.297,0.092 -0.846,0.031 -1.602,0.06 -1.723,0.06 -0.06,0 -0.545,-0.029 -1.088,-0.029 -0.543,-0.031 -1.179,-0.062 -1.603,-0.062 -0.272,0 -0.422,0.062 -0.422,0.214 0,0.089 0.061,0.151 0.211,0.151 0.242,0 0.574,0.09 0.816,0.121 0.514,0.092 0.577,0.67 0.696,1.428 0.15,1.06 0.15,3.098 0.15,5.586 l 0,4.558 z"
             style="fill:#006651;fill-opacity:1;fill-rule:nonzero;stroke:none"
             id="path42"
             inkscape:connector-curvature="0" /></g><g
           id="g44"
           transform="translate(187.0859,32.5586)"><path
             d="m 0,0 c 2.389,0 7.195,1.277 7.195,8.749 0,6.195 -3.748,9.446 -7.951,9.446 -4.443,0 -7.648,-2.795 -7.648,-8.414 C -8.404,3.769 -4.807,0 0,0 m -0.604,19.167 c 5.985,0 10.52,-3.676 10.52,-9.689 0,-5.771 -4.264,-10.541 -10.672,-10.541 -7.285,0 -10.398,5.499 -10.398,10.146 0,4.16 3.205,10.084 10.55,10.084"
             style="fill:#006651;fill-opacity:1;fill-rule:nonzero;stroke:none"
             id="path46"
             inkscape:connector-curvature="0" /></g><g
           id="g48"
           transform="translate(204.4688,41.0942)"><path
             d="m 0,0 c 0,-2.735 0,-5.132 0.031,-5.619 0.032,-0.637 0.09,-1.581 0.303,-1.852 0.332,-0.487 1.27,-1.033 4.412,-1.033 2.449,0 4.627,0.82 6.229,2.338 1.39,1.306 2.086,3.767 2.086,6.137 0,3.279 -1.42,5.375 -2.51,6.469 C 8.043,8.991 5.109,9.324 1.936,9.324 1.422,9.324 0.574,9.233 0.334,9.143 0.092,9.052 0,8.93 0,8.625 L 0,0 z m -2.418,2.794 c 0,4.01 0,4.739 -0.059,5.559 -0.062,0.88 -0.212,1.306 -1.089,1.427 -0.211,0.031 -0.664,0.061 -0.909,0.061 -0.088,0 -0.209,0.121 -0.209,0.212 0,0.152 0.121,0.213 0.422,0.213 1.209,0 2.932,-0.061 3.084,-0.061 0.303,0 1.996,0.061 3.567,0.061 2.66,0 7.527,0.243 10.672,-2.946 1.33,-1.336 2.599,-3.492 2.599,-6.561 0,-3.25 -1.39,-5.74 -2.871,-7.259 -1.148,-1.184 -3.539,-2.975 -8.072,-2.975 -1.149,0 -2.569,0.091 -3.719,0.15 -1.148,0.092 -2.055,0.152 -2.176,0.152 -0.06,0 -0.545,-0.029 -1.088,-0.029 -0.545,-0.031 -1.177,-0.062 -1.603,-0.062 -0.272,0 -0.422,0.062 -0.422,0.214 0,0.091 0.061,0.212 0.211,0.212 0.242,0 0.574,0.06 0.816,0.122 0.514,0.122 0.575,0.608 0.696,1.366 0.15,1.06 0.15,3.099 0.15,5.586 l 0,4.558 z"
             style="fill:#006651;fill-opacity:1;fill-rule:nonzero;stroke:none"
             id="path50"
             inkscape:connector-curvature="0" /></g><g
           id="g52"
           transform="translate(226.7031,35.3535)"><path
             d="m 0,0 c 0.061,-2.125 0.303,-2.764 1.027,-2.945 0.485,-0.122 1.09,-0.153 1.33,-0.153 0.122,0 0.213,-0.09 0.213,-0.213 0,-0.15 -0.181,-0.211 -0.484,-0.211 -1.512,0 -2.568,0.089 -2.813,0.089 -0.24,0 -1.357,-0.089 -2.566,-0.089 -0.273,0 -0.424,0.03 -0.424,0.211 0,0.123 0.09,0.213 0.211,0.213 0.213,0 0.695,0.031 1.088,0.153 0.666,0.181 0.756,0.882 0.756,3.218 l 0,14.791 c 0,1.034 0.15,1.308 0.363,1.308 0.303,0 0.756,-0.517 1.028,-0.79 0.421,-0.426 4.292,-4.556 8.404,-8.808 2.629,-2.733 5.471,-5.8 6.287,-6.651 l -0.272,12.938 c -0.029,1.67 -0.181,2.247 -0.998,2.398 -0.482,0.092 -1.087,0.123 -1.3,0.123 -0.18,0 -0.211,0.151 -0.211,0.243 0,0.151 0.211,0.181 0.513,0.181 1.209,0 2.479,-0.06 2.782,-0.06 0.302,0 1.179,0.06 2.269,0.06 0.27,0 0.483,-0.03 0.483,-0.181 0,-0.092 -0.123,-0.243 -0.303,-0.243 -0.121,0 -0.332,0 -0.635,-0.061 -0.877,-0.182 -0.937,-0.699 -0.937,-2.248 L 15.75,-1.853 c 0,-1.699 -0.029,-1.852 -0.211,-1.852 -0.273,0 -0.543,0.213 -2.025,1.58 C 13.242,-1.881 9.4,1.916 6.59,4.859 3.506,8.11 0.514,11.269 -0.301,12.181 L 0,0 z"
             style="fill:#006651;fill-opacity:1;fill-rule:nonzero;stroke:none"
             id="path54"
             inkscape:connector-curvature="0" /></g><g
           id="g56"
           transform="translate(254.9688,55.4302)"><path
             d="m 0,0 c 0.152,-0.274 0,-0.364 -0.121,-0.364 -0.09,0 -0.393,0.06 -0.906,0 -1.483,-0.152 -3.598,-0.852 -4.596,-1.276 -0.211,-0.091 -0.393,-0.152 -0.453,-0.152 -0.061,0 -0.151,0.061 -0.151,0.182 0,0.091 0.061,0.152 0.211,0.244 1.088,0.758 3.901,2.459 4.114,2.581 0.511,0.305 0.693,0.395 0.845,0.395 0.09,0 0.151,-0.061 0.301,-0.274 C -0.543,1.032 -0.332,0.607 0,0 m -3.385,-16.1 c 0,-2.487 0,-4.525 0.121,-5.586 0.09,-0.758 0.182,-1.244 0.967,-1.366 0.395,-0.062 0.967,-0.122 1.209,-0.122 0.15,0 0.213,-0.121 0.213,-0.213 0,-0.122 -0.123,-0.213 -0.424,-0.213 -1.48,0 -3.205,0.091 -3.326,0.091 -0.15,0 -1.813,-0.091 -2.629,-0.091 -0.273,0 -0.424,0.062 -0.424,0.213 0,0.092 0.059,0.213 0.211,0.213 0.242,0 0.574,0.06 0.819,0.122 0.511,0.122 0.603,0.608 0.693,1.366 0.121,1.061 0.15,3.099 0.15,5.586 l 0,4.558 c 0,4.01 0,4.739 -0.06,5.559 -0.059,0.88 -0.272,1.275 -0.846,1.397 -0.303,0.061 -0.635,0.091 -0.816,0.091 -0.121,0 -0.211,0.121 -0.211,0.212 0,0.152 0.119,0.213 0.424,0.213 0.876,0 2.539,-0.061 2.689,-0.061 0.121,0 1.846,0.061 2.66,0.061 0.303,0 0.424,-0.061 0.424,-0.213 0,-0.091 -0.121,-0.212 -0.211,-0.212 -0.184,0 -0.363,0 -0.666,-0.061 -0.727,-0.152 -0.877,-0.516 -0.937,-1.427 -0.03,-0.82 -0.03,-1.549 -0.03,-5.559 l 0,-4.558 z"
             style="fill:#006651;fill-opacity:1;fill-rule:nonzero;stroke:none"
             id="path58"
             inkscape:connector-curvature="0" /></g></g></g></g></svg>