<?xml version="1.0" encoding="UTF-8" standalone="no"?>
<!-- Created with Inkscape (http://www.inkscape.org/) -->

<svg
   xmlns:dc="http://purl.org/dc/elements/1.1/"
   xmlns:cc="http://creativecommons.org/ns#"
   xmlns:rdf="http://www.w3.org/1999/02/22-rdf-syntax-ns#"
   xmlns:svg="http://www.w3.org/2000/svg"
   xmlns="http://www.w3.org/2000/svg"
   xmlns:xlink="http://www.w3.org/1999/xlink"
   xmlns:sodipodi="http://sodipodi.sourceforge.net/DTD/sodipodi-0.dtd"
   xmlns:inkscape="http://www.inkscape.org/namespaces/inkscape"
   id="svg2"
   version="1.1"
   inkscape:version="0.48.4 r9939"
   width="385"
   height="90"
   xml:space="preserve"
   sodipodi:docname="svobodni-logo.svg"
   inkscape:export-filename="/srv/http/svobodni.master/www/resources/siteModule/img/svobodni-logo.PNG"
   inkscape:export-xdpi="89.99765"
   inkscape:export-ydpi="89.99765"><metadata
     id="metadata8"><rdf:RDF><cc:Work
         rdf:about=""><dc:format>image/svg+xml</dc:format><dc:type
           rdf:resource="http://purl.org/dc/dcmitype/StillImage" /><dc:title></dc:title></cc:Work></rdf:RDF></metadata><defs
     id="defs6"><linearGradient
       inkscape:collect="always"
       id="linearGradient3837"><stop
         style="stop-color:#ffffff;stop-opacity:1;"
         offset="0"
         id="stop3839" /><stop
         style="stop-color:#ffffff;stop-opacity:0;"
         offset="1"
         id="stop3841" /></linearGradient><clipPath
       clipPathUnits="userSpaceOnUse"
       id="clipPath20"><path
         d="m 0,85.04 283.46,0 L 283.46,0 0,0 0,85.04 z"
         id="path22"
         inkscape:connector-curvature="0" /></clipPath><linearGradient
       inkscape:collect="always"
       xlink:href="#linearGradient3837"
       id="linearGradient3843"
       x1="70"
       y1="0"
       x2="70"
       y2="208.18752"
       gradientUnits="userSpaceOnUse"
       gradientTransform="matrix(0.8,0,0,-0.8,0,120.01815)" /><clipPath
       clipPathUnits="userSpaceOnUse"
       id="clipPath20-4"><path
         d="m 0,85.04 283.46,0 L 283.46,0 0,0 0,85.04 z"
         id="path22-7"
         inkscape:connector-curvature="0" /></clipPath><clipPath
       clipPathUnits="userSpaceOnUse"
       id="clipPath20-0"><path
         d="m 0,85.04 283.46,0 L 283.46,0 0,0 0,85.04 z"
         id="path22-9"
         inkscape:connector-curvature="0" /></clipPath><linearGradient
       inkscape:collect="always"
       xlink:href="#linearGradient3837-9"
       id="linearGradient3843-8"
       x1="70"
       y1="0"
       x2="70"
       y2="208.18752"
       gradientUnits="userSpaceOnUse"
       gradientTransform="matrix(0.8,0,0,-0.8,0,120.01815)" /><linearGradient
       inkscape:collect="always"
       id="linearGradient3837-9"><stop
         style="stop-color:#ffffff;stop-opacity:1;"
         offset="0"
         id="stop3839-9" /><stop
         style="stop-color:#ffffff;stop-opacity:0;"
         offset="1"
         id="stop3841-94" /></linearGradient><linearGradient
       y2="208.18752"
       x2="70"
       y1="0"
       x1="70"
       gradientTransform="matrix(0.8,0,0,-0.8,0,240.01815)"
       gradientUnits="userSpaceOnUse"
       id="linearGradient3999"
       xlink:href="#linearGradient3837-9"
       inkscape:collect="always" /></defs><sodipodi:namedview
     pagecolor="#ffffff"
     bordercolor="#666666"
     borderopacity="1"
     objecttolerance="10"
     gridtolerance="10"
     guidetolerance="10"
     inkscape:pageopacity="0"
     inkscape:pageshadow="2"
     inkscape:window-width="1861"
     inkscape:window-height="1200"
     id="namedview4"
     showgrid="false"
     inkscape:zoom="1.2079305"
     inkscape:cx="15.987462"
     inkscape:cy="53.150002"
     inkscape:window-x="0"
     inkscape:window-y="0"
     inkscape:window-maximized="1"
     inkscape:current-layer="g10"><inkscape:grid
       type="xygrid"
       id="grid3845"
       empspacing="5"
       visible="true"
       enabled="true"
       snapvisiblegridlinesonly="true" /></sodipodi:namedview><g
     id="g10"
     inkscape:groupmode="layer"
     inkscape:label="cerna_negativ"
     transform="matrix(1.25,0,0,-1.25,0,90)"><g
       id="g16"
       inkscape:export-xdpi="119.1646"
       inkscape:export-ydpi="119.1646"
       transform="matrix(0.88331392,0,0,0.88331392,-25.134094,-4.7805957)"
       style="fill:#00654e;fill-opacity:1"><g
         id="g18"
         clip-path="url(#clipPath20)"
         style="fill:#00654e;fill-opacity:1"><g
           id="g24"
           transform="translate(46.0723,58.6284)"
           style="fill:#00654e;fill-opacity:1"><path
             d="M 0,0 C -0.188,-0.311 0.123,-0.513 0.366,-0.277 1.048,0.162 0.967,-0.019 1.642,-0.055 2.186,-0.084 2.649,0.326 2.681,0.86 2.691,1.051 2.644,1.231 2.557,1.387 1.939,1.474 1.341,1.422 0.763,1.256 L 0,0 z m 2.102,6.538 c 1.404,3.38 4.782,5.764 8.724,5.768 4.853,0.004 8.789,-3.868 8.789,-8.642 0,-4.773 -3.936,-8.643 -8.789,-8.643 -3.226,0 -5.844,2.572 -5.844,5.746 0,3.173 2.618,5.746 5.844,5.746 2.092,0 3.791,-1.669 3.791,-3.73 0,-2.06 -1.699,-3.729 -3.791,-3.729 -1.206,0 -2.183,0.961 -2.183,2.146 0,0.886 0.545,1.647 1.324,1.975 0.192,0.071 0.233,0.013 0.082,-0.139 -0.2,-0.194 -0.322,-0.464 -0.322,-0.761 0,-0.595 0.494,-1.08 1.099,-1.08 0.862,0 1.561,0.689 1.561,1.535 0,0.85 -0.699,1.539 -1.561,1.539 -1.767,0 -3.201,-1.411 -3.201,-3.147 0,-1.738 1.434,-3.148 3.201,-3.148 2.682,0 4.859,2.142 4.859,4.78 0,2.642 -2.177,4.779 -4.859,4.779 -3.865,0 -6.997,-3.081 -6.997,-6.883 0,-3.799 3.132,-6.879 6.997,-6.879 1.897,0 3.679,0.496 5.216,1.365 0.213,-0.544 0.47,-1.165 0.573,-1.868 0.181,-1.25 0.141,-2.544 0.343,-3.786 0.133,-0.819 0.918,-1.639 1.361,-2.31 0.361,-0.546 0.868,-1.556 1.521,-1.835 0.553,-0.235 1.768,-0.204 2.361,-0.312 2.248,-0.417 3.845,-1.037 5.795,-2.213 1.596,-0.966 2.859,-2.574 2.9,-4.477 0.023,-1.112 -0.172,-2.343 -0.252,-3.461 -0.074,-1.02 -0.238,-2.041 -0.184,-3.072 0.069,-1.255 1.29,-2.255 2.41,-2.636 0.984,-0.333 2.992,-0.562 3.728,-1.207 0.675,-0.586 0.767,-2.011 0.968,-2.812 0.141,-0.557 0.369,-1.309 0.503,-1.714 0.135,-0.405 0.503,-1.134 0.594,-1.304 0.429,-0.788 0.122,-0.766 -0.147,-1.422 -0.104,-0.284 -0.178,-0.677 -0.203,-0.912 -0.024,-0.236 -0.067,-1.181 -0.048,-1.337 0.019,-0.157 0.129,-0.455 0.227,-0.701 0.098,-0.247 0.179,-0.415 0.258,-0.642 0.078,-0.232 0.148,-0.407 0,-0.666 -0.148,-0.261 -0.368,-0.357 -0.649,-0.445 -0.684,-0.222 -1.434,-0.441 -2.154,-0.454 -0.49,-0.012 -0.821,0.023 -0.992,0.13 -0.447,0.285 0.106,1.362 0.244,1.689 0.185,0.444 0.547,1.08 0.841,1.743 0.293,0.664 0.308,0.901 0.319,1.63 0.02,1.263 -0.317,2.225 -0.895,3.329 -0.475,0.911 -0.883,1.671 -1.92,2.013 -1.31,0.438 -3.55,0.273 -5.181,0.533 -1.983,0.311 -4.389,0.781 -6.021,1.961 -0.149,0.109 -0.296,0.276 -0.41,0.058 -0.05,-0.088 -0.161,-0.385 -0.277,-0.627 -0.219,-0.455 -0.595,-0.772 -0.381,-1.296 0.374,-0.912 0.75,-1.463 0.51,-2.46 -0.123,-0.512 -0.374,-0.597 -0.773,-0.748 -1.033,-0.39 -2.343,-0.517 -3.433,-0.658 -0.742,-0.097 -1.693,-0.21 -2.557,-0.561 -0.508,-0.204 -0.938,-0.657 -1.09,-0.815 -0.31,-0.313 -0.525,-0.588 -0.996,-0.638 -0.11,-0.012 -0.324,-0.006 -0.485,-0.078 -0.412,-0.187 -0.343,-0.594 -0.343,-0.946 0,-0.208 -0.011,-0.453 -0.139,-0.684 -0.414,-0.738 -1.889,-0.775 -2.59,-0.53 -0.426,0.151 -0.653,0.293 -0.69,0.517 -0.037,0.227 0.035,0.389 0.177,0.805 0.14,0.414 0.489,1.109 0.803,1.622 0.534,0.875 1.41,1.6 2.385,1.956 0.523,0.187 1.164,0.118 1.71,0.185 1.367,0.168 2.625,0.822 3.526,1.852 0.52,0.593 0.492,0.864 0.031,1.469 -1.07,1.42 -2.143,2.716 -2.483,4.497 -0.059,0.307 -0.004,0.307 -0.357,0.361 -1.5,0.215 -3.132,0.65 -4.536,1.191 -2.104,0.811 -3.991,1.75 -5.763,3.15 -0.869,0.688 -2.024,1.751 -2.295,2.047 -0.156,0.17 -0.718,0.709 -0.718,0.709 -0.918,-0.185 -1.856,-0.17 -2.781,-0.024 -0.565,0.092 -1.277,0.13 -1.644,0.13 -1.135,0 -2.268,-0.127 -3.397,-0.219 -0.367,-0.03 -1.387,-0.176 -1.484,-0.2 -0.269,-0.064 -0.197,-0.164 -0.025,-0.322 0.142,-0.126 0.425,-0.401 0.871,-0.8 0.447,-0.398 1.104,-0.842 1.447,-1.031 0.443,-0.239 1.284,-0.222 1.439,-0.684 0.032,-0.088 0.119,-0.253 0.21,-0.275 0.092,-0.025 0.18,-0.013 0.278,0.022 0.098,0.038 0.164,0.092 0.323,0.237 0.157,0.147 0.549,0.54 0.766,0.696 0.522,0.368 1.179,0.189 1.656,-0.164 0.721,-0.532 1.276,-2.288 1.276,-3.15 0,-0.454 -0.679,-0.335 -0.953,-0.282 -0.526,0.102 -1.023,0.217 -1.567,0.204 -1.151,-0.028 -2.135,-0.074 -3.108,0.642 -0.216,0.155 -0.693,0.582 -1.005,0.854 -0.315,0.27 -1.135,0.923 -1.664,1.32 -0.872,0.662 -1.84,1.166 -2.611,1.951 -0.431,0.436 -0.7,0.85 -0.637,1.488 0.024,0.255 0.183,0.592 0.36,1.031 0.146,0.366 0.363,0.866 0.748,1.044 0.459,0.213 1.516,0.275 2.005,0.344 1.296,0.186 2.633,0.307 3.908,0.601 0.521,0.122 1.372,0.394 1.648,0.57 0.593,0.373 0.881,0.534 0.217,1.031 -0.23,0.168 -0.72,0.615 -1.089,0.922 -0.802,0.671 -1.721,1.349 -2.683,1.787 -0.767,0.343 -2.075,0.23 -2.876,0.063 -0.552,-0.115 -1.05,-0.463 -1.203,-0.591 -0.154,-0.126 -0.815,-0.854 -0.949,-1.005 -0.164,-0.183 -0.664,-0.914 -0.895,-0.972 -0.424,-0.105 -1.073,0.149 -1.154,-0.496 -0.07,-0.536 -0.051,-1.174 -0.246,-1.682 -0.072,-0.193 -0.207,-0.391 -0.655,-0.615 -0.77,-0.384 -2.387,-0.327 -3.132,0.181 -0.4,0.273 -0.042,0.63 0.195,0.879 0.708,0.751 1.438,1.392 2.054,2.251 0.173,0.244 0.636,0.834 0.846,1.044 0.508,0.515 1.101,0.777 1.729,1.117 0.257,0.136 0.632,0.355 1.072,0.597 1.072,0.582 1.969,1.192 2.895,1.964 0.418,0.351 1.025,0.673 1.586,0.683 0.686,0.011 1.256,-0.454 1.774,-0.833 1.375,-1.002 2.695,-1.197 4.279,-1.749 0.173,-0.06 0.39,-0.114 0.425,-0.114 0.049,0 0.049,0.083 0.281,0.513 0.495,0.908 1.146,1.681 1.803,2.473 0.354,0.427 0.864,1.122 1.011,1.337 0.346,0.507 0.542,1.119 0.759,1.684 -0.717,-0.16 -1.363,-0.706 -1.911,-1.152 -0.454,-0.37 -0.94,-0.933 -1.576,-0.952 -0.374,-0.013 -0.643,0.065 -1.153,0.192 -0.51,0.126 -1.072,0.374 -1.38,0.698 -0.689,0.731 -1.196,1.8 -0.95,2.795 0.313,1.261 1.07,2.545 1.71,3.689 0.308,0.55 0.91,1.562 1.118,1.914 0.207,0.349 0.439,0.718 0.538,0.945 0.1,0.231 0.16,0.93 0.222,1.242 0.061,0.316 0.305,0.804 0.494,1.069 0.718,1 1.273,1.413 1.719,2.69"
             style="fill:#00654e;fill-opacity:1;fill-rule:evenodd;stroke:none"
             id="path26"
             inkscape:connector-curvature="0" /></g><g
           id="g28"
           transform="translate(98.6357,32.2256)"
           style="fill:#00654e;fill-opacity:1"><path
             d="m 0,0 c -0.424,0.212 -0.454,0.334 -0.454,1.154 0,1.518 0.121,2.733 0.151,3.221 0.031,0.333 0.091,0.484 0.241,0.484 0.182,0 0.212,-0.091 0.212,-0.335 0,-0.273 0,-0.698 0.091,-1.123 0.454,-2.247 2.447,-3.097 4.474,-3.097 2.902,0 4.324,2.094 4.324,4.039 0,2.095 -0.876,3.31 -3.477,5.467 l -1.36,1.124 c -3.204,2.642 -3.931,4.525 -3.931,6.591 0,3.249 2.417,5.466 6.258,5.466 1.179,0 2.055,-0.119 2.811,-0.303 0.576,-0.122 0.817,-0.151 1.059,-0.151 0.242,0 0.302,-0.061 0.302,-0.212 0,-0.155 -0.121,-1.156 -0.121,-3.221 0,-0.485 -0.06,-0.699 -0.211,-0.699 -0.181,0 -0.212,0.152 -0.244,0.395 -0.029,0.366 -0.209,1.186 -0.391,1.519 -0.182,0.334 -0.997,1.61 -3.779,1.61 -2.085,0 -3.718,-1.306 -3.718,-3.524 0,-1.73 0.785,-2.823 3.687,-5.102 L 6.771,12.634 C 10.338,9.81 11.184,7.927 11.184,5.496 11.184,4.251 10.701,1.943 8.616,0.455 7.315,-0.456 5.682,-0.82 4.051,-0.82 2.628,-0.82 1.238,-0.607 0,0"
             style="fill:#00654e;fill-opacity:1;fill-rule:nonzero;stroke:none"
             id="path30"
             inkscape:connector-curvature="0" /></g><g
           id="g32"
           transform="translate(123.5293,35.2021)"
           style="fill:#00654e;fill-opacity:1"><path
             d="m 0,0 c 1.541,3.461 5.018,12.27 5.592,14.124 0.121,0.393 0.24,0.758 0.24,0.971 0,0.212 -0.091,0.456 -0.361,0.547 -0.302,0.091 -0.606,0.091 -0.908,0.091 -0.152,0 -0.302,0.091 -0.302,0.212 0,0.152 0.181,0.212 0.604,0.212 1.059,0 2.268,-0.06 2.602,-0.06 0.149,0 1.299,0.06 2.085,0.06 0.271,0 0.423,-0.06 0.423,-0.181 0,-0.121 -0.09,-0.243 -0.303,-0.243 -0.182,0 -0.785,0 -1.27,-0.305 C 8.039,15.185 7.616,14.822 6.922,13.06 6.618,12.332 5.319,9.233 3.959,6.074 2.325,2.309 1.147,-0.486 0.543,-1.763 c -0.727,-1.546 -0.877,-1.943 -1.148,-1.943 -0.303,0 -0.485,0.334 -0.999,1.58 l -6.53,15.825 c -0.604,1.457 -0.968,1.729 -1.845,1.943 -0.421,0.091 -0.875,0.091 -1.028,0.091 -0.149,0 -0.21,0.151 -0.21,0.243 0,0.151 0.273,0.181 0.696,0.181 1.269,0 2.781,-0.06 3.113,-0.06 0.272,0 1.451,0.06 2.479,0.06 0.484,0 0.726,-0.06 0.726,-0.181 0,-0.121 -0.09,-0.243 -0.273,-0.243 -0.301,0 -0.725,-0.031 -0.966,-0.123 -0.274,-0.119 -0.302,-0.271 -0.302,-0.454 0,-0.334 0.332,-1.124 0.723,-2.156 L 0,0 z"
             style="fill:#00654e;fill-opacity:1;fill-rule:nonzero;stroke:none"
             id="path34"
             inkscape:connector-curvature="0" /></g><g
           id="g36"
           transform="translate(145.248,32.5596)"
           style="fill:#00654e;fill-opacity:1"><path
             d="m 0,0 c 2.389,0 7.193,1.277 7.193,8.747 0,6.196 -3.748,9.447 -7.949,9.447 -4.443,0 -7.648,-2.795 -7.648,-8.413 C -8.404,3.768 -4.807,0 0,0 m -0.605,19.166 c 5.986,0 10.519,-3.676 10.519,-9.69 0,-5.771 -4.262,-10.539 -10.67,-10.539 -7.285,0 -10.398,5.497 -10.398,10.145 0,4.16 3.204,10.084 10.549,10.084"
             style="fill:#00654e;fill-opacity:1;fill-rule:nonzero;stroke:none"
             id="path38"
             inkscape:connector-curvature="0" /></g><g
           id="g40"
           transform="translate(162.8535,40.4873)"
           style="fill:#00654e;fill-opacity:1"><path
             d="m 0,0 c 0,-2.005 0,-5.102 0.031,-5.498 0.09,-1.244 0.09,-1.55 0.908,-1.943 0.725,-0.335 1.844,-0.366 2.329,-0.366 1.753,0 3.898,0.669 3.898,3.98 0,1.153 -0.453,3.37 -2.539,4.707 C 3.723,1.458 2.873,1.428 2.238,1.548 1.906,1.609 0.576,1.609 0.152,1.609 0.063,1.609 0,1.548 0,1.428 L 0,0 z M 0,2.854 C 0,2.672 0.063,2.613 0.186,2.582 0.334,2.551 0.818,2.459 1.816,2.459 c 1.483,0 2.055,0.062 2.598,0.668 0.576,0.639 1.027,1.519 1.027,2.764 0,1.976 -1.086,4.163 -3.748,4.163 -0.3,0 -0.935,-0.033 -1.359,-0.124 C 0.094,9.871 0,9.81 0,9.659 L 0,2.854 z m -2.297,0.547 c 0,4.009 0,4.739 -0.058,5.559 -0.063,0.88 -0.211,1.365 -1.088,1.488 -0.211,0.031 -0.664,0.06 -0.909,0.06 -0.089,0 -0.211,0.061 -0.211,0.152 0,0.152 0.122,0.212 0.422,0.212 1.209,0 2.934,-0.06 3.084,-0.06 0.635,0 1.875,0.06 3.116,0.06 4.441,0 5.591,-2.58 5.591,-3.948 0,-2.035 -1.33,-3.31 -2.691,-4.525 2.025,-0.607 4.687,-2.462 4.687,-5.376 0,-2.886 -2.146,-5.741 -6.681,-5.741 -0.485,0 -1.449,0.031 -2.299,0.092 -0.846,0.032 -1.602,0.059 -1.723,0.059 -0.058,0 -0.545,-0.027 -1.088,-0.027 -0.543,-0.032 -1.177,-0.063 -1.603,-0.063 -0.272,0 -0.422,0.063 -0.422,0.213 0,0.09 0.063,0.151 0.211,0.151 0.242,0 0.574,0.092 0.816,0.122 0.514,0.092 0.577,0.668 0.698,1.429 0.148,1.06 0.148,3.096 0.148,5.586 l 0,4.557 z"
             style="fill:#00654e;fill-opacity:1;fill-rule:nonzero;stroke:none"
             id="path42"
             inkscape:connector-curvature="0" /></g><g
           id="g44"
           transform="translate(187.0859,32.5596)"
           style="fill:#00654e;fill-opacity:1"><path
             d="m 0,0 c 2.389,0 7.193,1.277 7.193,8.747 0,6.196 -3.748,9.447 -7.951,9.447 -4.441,0 -7.646,-2.795 -7.646,-8.413 C -8.404,3.768 -4.809,0 0,0 m -0.605,19.166 c 5.986,0 10.519,-3.676 10.519,-9.69 0,-5.771 -4.264,-10.539 -10.672,-10.539 -7.283,0 -10.396,5.497 -10.396,10.145 0,4.16 3.205,10.084 10.549,10.084"
             style="fill:#00654e;fill-opacity:1;fill-rule:nonzero;stroke:none"
             id="path46"
             inkscape:connector-curvature="0" /></g><g
           id="g48"
           transform="translate(204.4688,41.0942)"
           style="fill:#00654e;fill-opacity:1"><path
             d="m 0,0 c 0,-2.734 0,-5.132 0.029,-5.619 0.032,-0.637 0.09,-1.58 0.305,-1.853 0.33,-0.486 1.27,-1.033 4.41,-1.033 2.449,0 4.627,0.82 6.231,2.339 1.388,1.306 2.084,3.767 2.084,6.136 0,3.281 -1.418,5.376 -2.508,6.469 C 8.043,8.99 5.107,9.323 1.936,9.323 1.422,9.323 0.572,9.233 0.334,9.142 0.092,9.052 0,8.93 0,8.625 L 0,0 z m -2.42,2.794 c 0,4.009 0,4.739 -0.059,5.56 -0.06,0.879 -0.21,1.305 -1.087,1.426 -0.211,0.03 -0.666,0.061 -0.911,0.061 -0.087,0 -0.209,0.121 -0.209,0.212 0,0.152 0.122,0.212 0.422,0.212 1.209,0 2.934,-0.06 3.084,-0.06 0.303,0 1.996,0.06 3.569,0.06 2.66,0 7.525,0.243 10.67,-2.946 1.332,-1.336 2.599,-3.492 2.599,-6.56 0,-3.25 -1.388,-5.741 -2.871,-7.259 -1.146,-1.185 -3.537,-2.976 -8.07,-2.976 -1.151,0 -2.571,0.092 -3.721,0.151 -1.146,0.092 -2.055,0.151 -2.176,0.151 -0.058,0 -0.545,-0.027 -1.088,-0.027 -0.545,-0.032 -1.177,-0.063 -1.601,-0.063 -0.274,0 -0.424,0.063 -0.424,0.213 0,0.092 0.061,0.213 0.213,0.213 0.24,0 0.572,0.06 0.814,0.121 0.516,0.123 0.577,0.607 0.698,1.368 0.148,1.06 0.148,3.097 0.148,5.586 l 0,4.557 z"
             style="fill:#00654e;fill-opacity:1;fill-rule:nonzero;stroke:none"
             id="path50"
             inkscape:connector-curvature="0" /></g><g
           id="g52"
           transform="translate(226.7031,35.3535)"
           style="fill:#00654e;fill-opacity:1"><path
             d="m 0,0 c 0.061,-2.126 0.303,-2.765 1.025,-2.945 0.487,-0.122 1.09,-0.153 1.33,-0.153 0.124,0 0.213,-0.091 0.213,-0.214 0,-0.148 -0.179,-0.211 -0.482,-0.211 -1.514,0 -2.57,0.089 -2.813,0.089 -0.242,0 -1.361,-0.089 -2.57,-0.089 -0.271,0 -0.422,0.031 -0.422,0.211 0,0.123 0.09,0.214 0.211,0.214 0.211,0 0.695,0.031 1.088,0.153 0.666,0.18 0.758,0.882 0.758,3.218 l 0,14.79 c 0,1.034 0.148,1.309 0.361,1.309 0.305,0 0.756,-0.518 1.03,-0.79 C 0.15,15.156 4.02,11.024 8.133,6.775 10.762,4.04 13.604,0.974 14.42,0.122 L 14.146,13.06 c -0.031,1.67 -0.179,2.247 -0.998,2.398 -0.484,0.092 -1.085,0.124 -1.298,0.124 -0.18,0 -0.211,0.151 -0.211,0.243 0,0.151 0.211,0.18 0.513,0.18 1.207,0 2.479,-0.059 2.782,-0.059 0.3,0 1.177,0.059 2.265,0.059 0.274,0 0.485,-0.029 0.485,-0.18 0,-0.092 -0.121,-0.243 -0.301,-0.243 -0.121,0 -0.334,0 -0.637,-0.061 -0.877,-0.182 -0.935,-0.699 -0.935,-2.247 L 15.75,-1.852 c 0,-1.7 -0.031,-1.854 -0.213,-1.854 -0.271,0 -0.545,0.214 -2.023,1.58 C 13.24,-1.881 9.4,1.916 6.59,4.86 3.506,8.11 0.514,11.268 -0.305,12.18 L 0,0 z"
             style="fill:#00654e;fill-opacity:1;fill-rule:nonzero;stroke:none"
             id="path54"
             inkscape:connector-curvature="0" /></g><g
           id="g56"
           transform="translate(254.9688,55.4302)"
           style="fill:#00654e;fill-opacity:1"><path
             d="m 0,0 c 0.15,-0.273 0,-0.365 -0.121,-0.365 -0.092,0 -0.395,0.061 -0.906,0 -1.485,-0.152 -3.598,-0.851 -4.596,-1.276 -0.213,-0.091 -0.395,-0.151 -0.453,-0.151 -0.063,0 -0.153,0.06 -0.153,0.182 0,0.09 0.063,0.151 0.211,0.243 1.088,0.759 3.903,2.46 4.114,2.582 0.511,0.304 0.693,0.395 0.845,0.395 0.09,0 0.153,-0.061 0.301,-0.273 C -0.545,1.031 -0.332,0.605 0,0 m -3.387,-16.099 c 0,-2.489 0,-4.526 0.121,-5.586 0.09,-0.761 0.184,-1.245 0.967,-1.368 0.395,-0.061 0.969,-0.121 1.209,-0.121 0.151,0 0.213,-0.121 0.213,-0.213 0,-0.123 -0.121,-0.213 -0.424,-0.213 -1.48,0 -3.205,0.09 -3.324,0.09 -0.152,0 -1.814,-0.09 -2.631,-0.09 -0.271,0 -0.424,0.063 -0.424,0.213 0,0.092 0.061,0.213 0.211,0.213 0.242,0 0.574,0.06 0.819,0.121 0.511,0.123 0.603,0.607 0.695,1.368 0.119,1.06 0.148,3.097 0.148,5.586 l 0,4.557 c 0,4.009 0,4.739 -0.058,5.56 -0.061,0.878 -0.274,1.274 -0.848,1.396 -0.303,0.06 -0.635,0.091 -0.814,0.091 -0.121,0 -0.211,0.121 -0.211,0.212 0,0.152 0.119,0.212 0.422,0.212 0.877,0 2.539,-0.06 2.691,-0.06 0.119,0 1.844,0.06 2.658,0.06 0.305,0 0.426,-0.06 0.426,-0.212 0,-0.091 -0.121,-0.212 -0.213,-0.212 -0.184,0 -0.361,0 -0.666,-0.061 -0.726,-0.152 -0.877,-0.516 -0.935,-1.426 -0.032,-0.821 -0.032,-1.551 -0.032,-5.56 l 0,-4.557 z"
             style="fill:#00654e;fill-opacity:1;fill-rule:nonzero;stroke:none"
             id="path58"
             inkscape:connector-curvature="0" /></g></g></g></g></svg>