<?xml version="1.0" encoding="UTF-8" standalone="no"?>
<!-- Created with Inkscape (http://www.inkscape.org/) -->

<svg
   xmlns:dc="http://purl.org/dc/elements/1.1/"
   xmlns:cc="http://creativecommons.org/ns#"
   xmlns:rdf="http://www.w3.org/1999/02/22-rdf-syntax-ns#"
   xmlns:svg="http://www.w3.org/2000/svg"
   xmlns="http://www.w3.org/2000/svg"
   xmlns:xlink="http://www.w3.org/1999/xlink"
   xmlns:sodipodi="http://sodipodi.sourceforge.net/DTD/sodipodi-0.dtd"
   xmlns:inkscape="http://www.inkscape.org/namespaces/inkscape"
   id="svg2"
   version="1.1"
   inkscape:version="0.48.4 r9939"
   width="300"
   height="200"
   xml:space="preserve"
   sodipodi:docname="svobodni-logo.svg"
   inkscape:export-filename="/srv/http/svobodni.master/www/resources/siteModule/img/svobodni-logo.PNG"
   inkscape:export-xdpi="89.99765"
   inkscape:export-ydpi="89.99765"><metadata
     id="metadata8"><rdf:RDF><cc:Work
         rdf:about=""><dc:format>image/svg+xml</dc:format><dc:type
           rdf:resource="http://purl.org/dc/dcmitype/StillImage" /><dc:title></dc:title></cc:Work></rdf:RDF></metadata><defs
     id="defs6"><linearGradient
       inkscape:collect="always"
       id="linearGradient4152"><stop
         style="stop-color:#000000;stop-opacity:1;"
         offset="0"
         id="stop4154" /><stop
         style="stop-color:#000000;stop-opacity:0;"
         offset="1"
         id="stop4156" /></linearGradient><linearGradient
       id="linearGradient4057"><stop
         style="stop-color:#ffffff;stop-opacity:0;"
         offset="0"
         id="stop4059" /><stop
         id="stop4067"
         offset="0.5"
         style="stop-color:#ffffff;stop-opacity:0;" /><stop
         id="stop4065"
         offset="0.5"
         style="stop-color:#ffffff;stop-opacity:1;" /><stop
         style="stop-color:#ffffff;stop-opacity:0;"
         offset="1"
         id="stop4061" /></linearGradient><linearGradient
       inkscape:collect="always"
       id="linearGradient3981"><stop
         style="stop-color:#ffffff;stop-opacity:1;"
         offset="0"
         id="stop3983" /><stop
         style="stop-color:#ffffff;stop-opacity:1"
         offset="1"
         id="stop3985" /></linearGradient><linearGradient
       inkscape:collect="always"
       id="linearGradient4039"><stop
         style="stop-color:#ffffff;stop-opacity:1;"
         offset="0"
         id="stop4041" /><stop
         style="stop-color:#ffffff;stop-opacity:0;"
         offset="1"
         id="stop4043" /></linearGradient><clipPath
       clipPathUnits="userSpaceOnUse"
       id="clipPath20"><path
         d="m 0,85.04 283.46,0 L 283.46,0 0,0 0,85.04 z"
         id="path22"
         inkscape:connector-curvature="0" /></clipPath><clipPath
       clipPathUnits="userSpaceOnUse"
       id="clipPath20-4"><path
         d="m 0,85.04 283.46,0 L 283.46,0 0,0 0,85.04 z"
         id="path22-7"
         inkscape:connector-curvature="0" /></clipPath><clipPath
       clipPathUnits="userSpaceOnUse"
       id="clipPath20-0"><path
         d="m 0,85.04 283.46,0 L 283.46,0 0,0 0,85.04 z"
         id="path22-9"
         inkscape:connector-curvature="0" /></clipPath><linearGradient
       inkscape:collect="always"
       xlink:href="#linearGradient3837-9"
       id="linearGradient3843-8"
       x1="70"
       y1="0"
       x2="70"
       y2="208.18752"
       gradientUnits="userSpaceOnUse"
       gradientTransform="matrix(0.8,0,0,-0.8,0,120.01815)" /><linearGradient
       inkscape:collect="always"
       id="linearGradient3837-9"><stop
         style="stop-color:#ffffff;stop-opacity:1;"
         offset="0"
         id="stop3839-9" /><stop
         style="stop-color:#ffffff;stop-opacity:0;"
         offset="1"
         id="stop3841-94" /></linearGradient><linearGradient
       inkscape:collect="always"
       xlink:href="#linearGradient4039"
       id="linearGradient4045"
       x1="-55.774921"
       y1="0"
       x2="-55.774921"
       y2="-85.038994"
       gradientUnits="userSpaceOnUse" /><clipPath
       clipPathUnits="userSpaceOnUse"
       id="clipPath20-0-0"><path
         d="m 0,85.04 283.46,0 L 283.46,0 0,0 0,85.04 z"
         id="path22-9-2"
         inkscape:connector-curvature="0" /></clipPath><clipPath
       clipPathUnits="userSpaceOnUse"
       id="clipPath20-0-0-8"><path
         d="m 0,85.04 283.46,0 L 283.46,0 0,0 0,85.04 z"
         id="path22-9-2-5"
         inkscape:connector-curvature="0" /></clipPath><linearGradient
       inkscape:collect="always"
       xlink:href="#linearGradient3837-9"
       id="linearGradient3987"
       x1="89.073334"
       y1="18.309851"
       x2="236.76395"
       y2="51.424339"
       gradientUnits="userSpaceOnUse" /><linearGradient
       inkscape:collect="always"
       xlink:href="#linearGradient3981"
       id="linearGradient3989"
       gradientUnits="userSpaceOnUse"
       x1="89.735611"
       y1="58.709526"
       x2="53.971977"
       y2="13.657472" /><linearGradient
       inkscape:collect="always"
       xlink:href="#linearGradient3981"
       id="linearGradient3991"
       gradientUnits="userSpaceOnUse"
       x1="89.735611"
       y1="58.709526"
       x2="53.971977"
       y2="13.657472" /><linearGradient
       inkscape:collect="always"
       xlink:href="#linearGradient3981"
       id="linearGradient3993"
       gradientUnits="userSpaceOnUse"
       x1="89.735611"
       y1="58.709526"
       x2="53.971977"
       y2="13.657472" /><linearGradient
       inkscape:collect="always"
       xlink:href="#linearGradient3981"
       id="linearGradient3995"
       gradientUnits="userSpaceOnUse"
       x1="89.735611"
       y1="58.709526"
       x2="53.971977"
       y2="13.657472" /><linearGradient
       inkscape:collect="always"
       xlink:href="#linearGradient3981"
       id="linearGradient3997"
       gradientUnits="userSpaceOnUse"
       x1="89.735611"
       y1="58.709526"
       x2="53.971977"
       y2="13.657472" /><linearGradient
       inkscape:collect="always"
       xlink:href="#linearGradient3981"
       id="linearGradient3999"
       gradientUnits="userSpaceOnUse"
       x1="89.735611"
       y1="58.709526"
       x2="53.971977"
       y2="13.657472" /><linearGradient
       inkscape:collect="always"
       xlink:href="#linearGradient3981"
       id="linearGradient4001"
       gradientUnits="userSpaceOnUse"
       x1="89.735611"
       y1="58.709526"
       x2="53.971977"
       y2="13.657472" /><linearGradient
       inkscape:collect="always"
       xlink:href="#linearGradient3981"
       id="linearGradient4003"
       gradientUnits="userSpaceOnUse"
       x1="89.735611"
       y1="58.709526"
       x2="53.971977"
       y2="13.657472" /><linearGradient
       inkscape:collect="always"
       xlink:href="#linearGradient3981"
       id="linearGradient4005"
       gradientUnits="userSpaceOnUse"
       x1="89.735611"
       y1="58.709526"
       x2="53.971977"
       y2="13.657472" /><linearGradient
       inkscape:collect="always"
       xlink:href="#linearGradient3981"
       id="linearGradient4007"
       gradientUnits="userSpaceOnUse"
       x1="89.735611"
       y1="58.709526"
       x2="53.971977"
       y2="13.657472" /><linearGradient
       inkscape:collect="always"
       xlink:href="#linearGradient3981"
       id="linearGradient4009"
       gradientUnits="userSpaceOnUse"
       x1="89.735611"
       y1="58.709526"
       x2="53.971977"
       y2="13.657472" /><linearGradient
       inkscape:collect="always"
       xlink:href="#linearGradient3981"
       id="linearGradient4011"
       gradientUnits="userSpaceOnUse"
       x1="89.735611"
       y1="58.709526"
       x2="53.971977"
       y2="13.657472" /><linearGradient
       inkscape:collect="always"
       xlink:href="#linearGradient3981"
       id="linearGradient4013"
       gradientUnits="userSpaceOnUse"
       x1="89.735611"
       y1="58.709526"
       x2="53.971977"
       y2="13.657472" /><linearGradient
       inkscape:collect="always"
       xlink:href="#linearGradient3981"
       id="linearGradient4015"
       gradientUnits="userSpaceOnUse"
       x1="89.735611"
       y1="58.709526"
       x2="53.971977"
       y2="13.657472" /><linearGradient
       inkscape:collect="always"
       xlink:href="#linearGradient3981"
       id="linearGradient4017"
       gradientUnits="userSpaceOnUse"
       x1="89.735611"
       y1="58.709526"
       x2="53.971977"
       y2="13.657472" /><linearGradient
       inkscape:collect="always"
       xlink:href="#linearGradient3981"
       id="linearGradient4019"
       gradientUnits="userSpaceOnUse"
       x1="89.735611"
       y1="58.709526"
       x2="53.971977"
       y2="13.657472" /><linearGradient
       inkscape:collect="always"
       xlink:href="#linearGradient3981"
       id="linearGradient4021"
       gradientUnits="userSpaceOnUse"
       x1="89.735611"
       y1="58.709526"
       x2="53.971977"
       y2="13.657472" /><linearGradient
       inkscape:collect="always"
       xlink:href="#linearGradient3981"
       id="linearGradient4023"
       gradientUnits="userSpaceOnUse"
       x1="89.735611"
       y1="58.709526"
       x2="53.971977"
       y2="13.657472" /><linearGradient
       inkscape:collect="always"
       xlink:href="#linearGradient3837-9"
       id="linearGradient4025"
       gradientUnits="userSpaceOnUse"
       x1="57.283428"
       y1="67.31929"
       x2="53.971977"
       y2="20.959009" /><linearGradient
       inkscape:collect="always"
       xlink:href="#linearGradient3981"
       id="linearGradient4028"
       gradientUnits="userSpaceOnUse"
       x1="89.735611"
       y1="58.709526"
       x2="53.971977"
       y2="13.657472"
       gradientTransform="matrix(1.25,0,0,-1.25,72.911622,204.89725)" /><linearGradient
       inkscape:collect="always"
       xlink:href="#linearGradient3981"
       id="linearGradient4031"
       gradientUnits="userSpaceOnUse"
       x1="89.735611"
       y1="58.709526"
       x2="53.971977"
       y2="13.657472"
       gradientTransform="translate(98.6357,32.2256)" /><linearGradient
       inkscape:collect="always"
       xlink:href="#linearGradient3981"
       id="linearGradient4034"
       gradientUnits="userSpaceOnUse"
       x1="89.735611"
       y1="58.709526"
       x2="53.971977"
       y2="13.657472"
       gradientTransform="translate(123.5293,35.2021)" /><linearGradient
       inkscape:collect="always"
       xlink:href="#linearGradient3981"
       id="linearGradient4037"
       gradientUnits="userSpaceOnUse"
       x1="89.735611"
       y1="58.709526"
       x2="53.971977"
       y2="13.657472"
       gradientTransform="translate(145.248,32.5596)" /><linearGradient
       inkscape:collect="always"
       xlink:href="#linearGradient3981"
       id="linearGradient4040"
       gradientUnits="userSpaceOnUse"
       x1="89.735611"
       y1="58.709526"
       x2="53.971977"
       y2="13.657472"
       gradientTransform="translate(162.8535,40.4873)" /><linearGradient
       inkscape:collect="always"
       xlink:href="#linearGradient3981"
       id="linearGradient4043"
       gradientUnits="userSpaceOnUse"
       x1="89.735611"
       y1="58.709526"
       x2="53.971977"
       y2="13.657472"
       gradientTransform="translate(187.0859,32.5596)" /><linearGradient
       inkscape:collect="always"
       xlink:href="#linearGradient3981"
       id="linearGradient4046"
       gradientUnits="userSpaceOnUse"
       x1="89.735611"
       y1="58.709526"
       x2="53.971977"
       y2="13.657472"
       gradientTransform="translate(204.4688,41.0942)" /><linearGradient
       inkscape:collect="always"
       xlink:href="#linearGradient3981"
       id="linearGradient4049"
       gradientUnits="userSpaceOnUse"
       x1="89.735611"
       y1="58.709526"
       x2="53.971977"
       y2="13.657472"
       gradientTransform="translate(226.7031,35.3535)" /><linearGradient
       inkscape:collect="always"
       xlink:href="#linearGradient3981"
       id="linearGradient4052"
       gradientUnits="userSpaceOnUse"
       x1="89.735611"
       y1="58.709526"
       x2="53.971977"
       y2="13.657472"
       gradientTransform="translate(254.9688,55.4302)" /><linearGradient
       inkscape:collect="always"
       xlink:href="#linearGradient3981"
       id="linearGradient4055"
       gradientUnits="userSpaceOnUse"
       gradientTransform="translate(46.0723,58.6284)"
       x1="13.197996"
       y1="-27.735044"
       x2="82.076134"
       y2="4.0548639" /><linearGradient
       inkscape:collect="always"
       xlink:href="#linearGradient4057"
       id="linearGradient4063"
       x1="-146.77672"
       y1="-21.206779"
       x2="-146.77672"
       y2="-61.641346"
       gradientUnits="userSpaceOnUse" /><linearGradient
       inkscape:collect="always"
       xlink:href="#linearGradient4057"
       id="linearGradient4069"
       gradientUnits="userSpaceOnUse"
       x1="-146.77672"
       y1="-21.206779"
       x2="-146.77672"
       y2="-61.641346" /><clipPath
       clipPathUnits="userSpaceOnUse"
       id="clipPath20-0-0-6"><path
         d="m 0,85.04 283.46,0 L 283.46,0 0,0 0,85.04 z"
         id="path22-9-2-6"
         inkscape:connector-curvature="0" /></clipPath><linearGradient
       inkscape:collect="always"
       xlink:href="#linearGradient4152"
       id="linearGradient4158"
       x1="42.050762"
       y1="34.204803"
       x2="111.59119"
       y2="60.696396"
       gradientUnits="userSpaceOnUse" /><linearGradient
       inkscape:collect="always"
       xlink:href="#linearGradient4057"
       id="linearGradient4223"
       x1="93.599998"
       y1="31.200001"
       x2="93.599998"
       y2="88.800003"
       gradientUnits="userSpaceOnUse"
       gradientTransform="translate(-40.714923,-20.8)" /><linearGradient
       inkscape:collect="always"
       xlink:href="#linearGradient4057-2"
       id="linearGradient4223-7"
       x1="93.599998"
       y1="31.200001"
       x2="93.599998"
       y2="88.800003"
       gradientUnits="userSpaceOnUse"
       gradientTransform="translate(2.0051092e-7,59.199878)" /><linearGradient
       id="linearGradient4057-2"><stop
         style="stop-color:#ffffff;stop-opacity:0;"
         offset="0"
         id="stop4059-0" /><stop
         id="stop4067-2"
         offset="0.5"
         style="stop-color:#ffffff;stop-opacity:0;" /><stop
         id="stop4065-2"
         offset="0.5"
         style="stop-color:#ffffff;stop-opacity:1;" /><stop
         style="stop-color:#ffffff;stop-opacity:0;"
         offset="1"
         id="stop4061-6" /></linearGradient></defs><sodipodi:namedview
     pagecolor="#ffffff"
     bordercolor="#666666"
     borderopacity="1"
     objecttolerance="10"
     gridtolerance="10"
     guidetolerance="10"
     inkscape:pageopacity="0"
     inkscape:pageshadow="2"
     inkscape:window-width="1861"
     inkscape:window-height="1200"
     id="namedview4"
     showgrid="false"
     inkscape:zoom="3"
     inkscape:cx="181.80047"
     inkscape:cy="136.05385"
     inkscape:window-x="0"
     inkscape:window-y="0"
     inkscape:window-maximized="1"
     inkscape:current-layer="g10"
     showguides="true"
     inkscape:guide-bbox="true"><inkscape:grid
       type="xygrid"
       id="grid3845"
       empspacing="5"
       visible="true"
       enabled="true"
       snapvisiblegridlinesonly="true" /><sodipodi:guide
       orientation="0,1"
       position="244.33333,50"
       id="guide4261" /></sodipodi:namedview><g
     id="g10"
     inkscape:groupmode="layer"
     inkscape:label="cerna_negativ"
     transform="matrix(1.25,0,0,-1.25,0,200)"><g
       id="g16-8-1-8"
       inkscape:export-xdpi="119.1646"
       inkscape:export-ydpi="119.1646"
       transform="translate(12.256998,17.453797)"
       style="fill:url(#linearGradient3987);fill-opacity:1" /><path
       inkscape:connector-curvature="0"
       style="fill:#00654e;fill-opacity:1;fill-rule:evenodd;stroke:none"
       d="m 28.435077,67.6 c -3.942,-0.004 -7.321,-2.395 -8.725,-5.775 -0.446,-1.277 -1.007,-1.7 -1.725,-2.7 -0.189,-0.265 -0.414,-0.759 -0.475,-1.075 -0.062,-0.312 -0.125,-0.994 -0.225,-1.225 -0.099,-0.227 -0.343,-0.601 -0.55,-0.95 -0.208,-0.352 -0.792,-1.375 -1.1,-1.925 -0.64,-1.144 -1.412,-2.414 -1.725,-3.675 -0.246,-0.995 0.261,-2.069 0.95,-2.8 0.308,-0.324 0.865,-0.574 1.375,-0.7 0.51,-0.127 0.801,-0.213 1.175,-0.2 0.636,0.019 1.121,0.605 1.575,0.975 0.548,0.446 1.183,0.99 1.9,1.15 -0.217,-0.565 -0.404,-1.193 -0.75,-1.7 -0.147,-0.215 -0.671,-0.898 -1.025,-1.325 -0.657,-0.792 -1.305,-1.567 -1.8,-2.475 -0.232,-0.43 -0.226,-0.525 -0.275,-0.525 -0.035,0 -0.252,0.065 -0.425,0.125 -1.584,0.552 -2.9,0.748 -4.275,1.75 -0.518,0.379 -1.089,0.836 -1.775,0.825 -0.5610005,-0.01 -1.1820005,-0.324 -1.6000005,-0.675 -0.926,-0.772 -1.828,-1.393 -2.9,-1.975 -0.44,-0.242 -0.793,-0.464 -1.05,-0.6 -0.628,-0.34 -1.242,-0.585 -1.75,-1.1 -0.21,-0.21 -0.652,-0.806 -0.825,-1.05 -0.616,-0.859 -1.367,-1.499 -2.07499998,-2.25 -0.237,-0.249 -0.575,-0.602 -0.175,-0.875 0.745,-0.508 2.35499998,-0.559 3.12499998,-0.175 0.448,0.224 0.578,0.407 0.65,0.6 0.195,0.508 0.18,1.139 0.25,1.675 0.081,0.645 0.726,0.395 1.15,0.5 0.231,0.058 0.736,0.792 0.9,0.975 0.134,0.151 0.796,0.874 0.95,1 0.153,0.128 0.648,0.485 1.2,0.6 0.801,0.167 2.1080005,0.268 2.8750005,-0.075 0.962,-0.438 1.873,-1.104 2.675,-1.775 0.369,-0.307 0.87,-0.757 1.1,-0.925 0.664,-0.497 0.368,-0.652 -0.225,-1.025 -0.276,-0.176 -1.129,-0.453 -1.65,-0.575 -1.275,-0.294 -2.604,-0.414 -3.9000005,-0.6 -0.489,-0.069 -1.541,-0.137 -2,-0.35 -0.385,-0.178 -0.604,-0.684 -0.75,-1.05 -0.177,-0.439 -0.351,-0.77 -0.375,-1.025 -0.063,-0.638 0.219,-1.039 0.65,-1.475 0.771,-0.785 1.728,-1.288 2.6,-1.95 0.529,-0.397 1.3600005,-1.055 1.6750005,-1.325 0.312,-0.272 0.784,-0.695 1,-0.85 0.973,-0.716 1.949,-0.678 3.1,-0.65 0.544,0.013 1.049,-0.098 1.575,-0.2 0.274,-0.053 0.95,-0.179 0.95,0.275 0,0.862 -0.554,2.618 -1.275,3.15 -0.477,0.353 -1.128,0.543 -1.65,0.175 -0.217,-0.156 -0.618,-0.553 -0.775,-0.7 -0.159,-0.145 -0.227,-0.212 -0.325,-0.25 -0.098,-0.035 -0.183,-0.025 -0.275,0 -0.091,0.022 -0.168,0.187 -0.2,0.275 -0.155,0.462 -1.007,0.436 -1.45,0.675 -0.343,0.18896 -1.003,0.62696 -1.45,1.02496 -0.4460005,0.399 -0.7080005,0.674 -0.8500005,0.8 -0.172,0.158 -0.244,0.261 0.025,0.325 0.097,0.024 1.1080005,0.17 1.4750005,0.2 1.129,0.092 2.265,0.225 3.4,0.225 0.367,0 1.085,-0.033 1.65,-0.125 0.925,-0.146 1.857,-0.16 2.775,0.025 0,0 0.569,-0.555 0.725,-0.725 0.271,-0.296 1.406,-1.362 2.275,-2.05 1.772,-1.4 3.671,-2.339 5.775,-3.15 1.404,-0.541 3.025,-0.96 4.525,-1.175 0.353,-0.054 0.316,-0.068 0.375,-0.375 0.34,-1.781 1.405,-3.08 2.475,-4.5 0.461,-0.605 0.495,-0.857 -0.025,-1.45 -0.901,-1.03 -2.158,-1.707 -3.525,-1.875 -0.546,-0.067 -1.202,0.012 -1.725,-0.175 -0.975,-0.35596 -1.841,-1.07496 -2.375,-1.94996 -0.314,-0.513 -0.66,-1.211 -0.8,-1.625 -0.142,-0.416 -0.212,-0.573 -0.175,-0.8 0.037,-0.224 0.249,-0.374 0.675,-0.525 0.701,-0.245 2.186,-0.213 2.6,0.525 0.128,0.231 0.125,0.492 0.125,0.7 0,0.352 -0.062,0.738 0.35,0.925 0.161,0.072 0.39,0.088 0.5,0.1 0.471,0.05 0.665,0.312 0.975,0.625 0.152,0.158 0.592,0.621 1.1,0.825 0.864,0.351 1.808,0.453 2.55,0.55 1.09,0.141 2.417,0.26 3.45,0.65 0.399,0.151 0.652,0.238 0.775,0.75 0.24,0.997 -0.151,1.563 -0.525,2.475 -0.214,0.524 0.156,0.845 0.375,1.3 0.116,0.242 0.225,0.537 0.275,0.625 0.114,0.218 0.276,0.034 0.425,-0.075 1.632,-1.18 4.042,-1.639 6.025,-1.95 1.631,-0.26 3.865,-0.087 5.175,-0.525 1.037,-0.342 1.45,-1.114 1.925,-2.025 0.578,-1.104 0.92,-2.062 0.9,-3.325 -0.01104,-0.729 -0.032,-0.961 -0.325,-1.625 -0.294,-0.663 -0.665,-1.306 -0.85,-1.75 -0.138,-0.327 -0.697,-1.415 -0.25,-1.7 0.171,-0.107 0.51,-0.137 1,-0.125 0.72,0.013 1.466,0.228 2.15,0.45 0.281,0.088 0.502,0.189 0.65,0.45 0.148,0.259 0.078,0.443 0,0.675 -0.07896,0.227 -0.152,0.403 -0.25,0.65 -0.098,0.246 -0.206,0.543 -0.225,0.7 -0.01904,0.156 0.026,1.089 0.05,1.325 0.02496,0.235 0.096,0.641 0.2,0.925 0.269,0.656 0.579,0.612 0.15,1.4 -0.091,0.17 -0.465,0.92 -0.6,1.325 -0.134,0.405 -0.359,1.143 -0.5,1.7 -0.201,0.801 -0.3,2.239 -0.975,2.825 -0.736,0.645 -2.741,0.867 -3.725,1.2 -1.12,0.381 -2.331,1.37 -2.4,2.625 -0.054,1.031 0.101,2.055 0.175,3.075 0.08,1.118 0.273,2.363 0.25,3.475 -0.04096,1.903 -1.304,3.509 -2.9,4.475 -1.95,1.176 -3.552,1.783 -5.8,2.2 -0.593,0.10796 -1.797,0.09 -2.35,0.32496 -0.653,0.279 -1.164,1.279 -1.525,1.825 -0.443,0.671 -1.242,1.506 -1.375,2.325 -0.202,1.242 -0.144,2.525 -0.325,3.775 -0.103,0.703 -0.362,1.331 -0.575,1.875 -1.537,-0.869 -3.328,-1.375 -5.225,-1.375 -3.865,0 -7,3.076 -7,6.875 0,3.802 3.135,6.9 7,6.9 2.682,0 4.875,-2.158 4.875,-4.8 0,-2.638 -2.193,-4.775 -4.875,-4.775 -1.767,0 -3.2,1.412 -3.2,3.15 0,1.736 1.433,3.15 3.2,3.15 0.862,0 1.575,-0.7 1.575,-1.55 0,-0.846 -0.713,-1.525 -1.575,-1.525 -0.605,0 -1.1,0.48 -1.1,1.075 0,0.297 0.125,0.581 0.325,0.775 0.151,0.152 0.117,0.196 -0.075,0.125 -0.779,-0.328 -1.325,-1.089 -1.325,-1.975 0,-1.185 0.969,-2.15 2.175,-2.15 2.092,0 3.8,1.69 3.8,3.75 0,2.061 -1.708,3.725 -3.8,3.725 -3.226,0 -5.85,-2.577 -5.85,-5.75 0,-3.174 2.624,-5.75 5.85,-5.75 4.853,0 8.8,3.877 8.8,8.65 0,4.774 -3.947,8.654 -8.8,8.65 z m -9.175,-10.9 c 0.299,0.0229 0.591,0.0185 0.9,-0.025 0.087,-0.156 0.135,-0.334 0.125,-0.525 -0.032,-0.534 -0.481,-0.954 -1.025,-0.925 -0.675,0.036 -0.593,0.214 -1.275,-0.225 -0.243,-0.236 -0.563,-0.036 -0.375,0.275 l 0.775,1.27496 c 0.289,0.083 0.576,0.12712 0.875,0.15 z m 206.200003,-3 c -0.152,0 -0.339,-0.096 -0.85,-0.4 -0.211,-0.122 -3.037,-1.816 -4.125,-2.575 -0.148,-0.092 -0.2,-0.16 -0.2,-0.25 0,-0.122 0.087,-0.175 0.15,-0.175 0.058,0 0.237,0.059 0.45,0.15 0.998,0.425 3.115,1.123 4.6,1.275 0.511,0.061 0.808,0 0.9,0 0.121,0 0.275,0.077 0.125,0.35 -0.332,0.605 -0.537,1.044 -0.75,1.35 -0.148,0.212 -0.21,0.275 -0.3,0.275 z M 76.710077,51.875 c -3.841,0 -6.25,-2.226 -6.25,-5.475 0,-2.066 0.721,-3.933 3.925,-6.575 l 1.35,-1.125 c 2.601,-2.157 3.475,-3.38 3.475,-5.475 0,-1.945 -1.423,-4.05 -4.325,-4.05 -2.027,0 -4.021,0.853 -4.475,3.1 -0.091,0.425 -0.075,0.852 -0.075,1.125 0,0.244 -0.043,0.35 -0.225,0.35 -0.15,0 -0.194,-0.167 -0.225,-0.5 -0.03,-0.488 -0.15,-1.707 -0.15,-3.225 0,-0.82 0.026,-0.938 0.45,-1.15 1.238,-0.607 2.627,-0.825 4.05,-0.825 1.631,0 3.249,0.364 4.55,1.275 2.085,1.488 2.575,3.805 2.575,5.05 0,2.431 -0.833,4.326 -4.4,7.15 l -0.85,0.65 c -2.902,2.279 -3.7,3.37 -3.7,5.1 0,2.218 1.64,3.525 3.725,3.525 2.782,0 3.593,-1.266 3.775,-1.6 0.182,-0.333 0.371,-1.159 0.4,-1.525 0.032,-0.243 0.044,-0.4 0.225,-0.4 0.151,0 0.225,0.215 0.225,0.7 -4e-5,2.065 0.12496,3.07 0.12496,3.225 0,0.151 -0.058,0.225 -0.3,0.225 -0.242,0 -0.499,0.028 -1.075,0.15 -0.756,0.184 -1.621,0.3 -2.8,0.3 z m 39.475003,-3.5 c -7.345,0 -10.55,-5.915 -10.55,-10.075 0,-4.648 3.115,-10.15 10.4,-10.15 6.408,0 10.675,4.779 10.675,10.55 0,6.014 -4.539,9.675 -10.525,9.675 z m 41.85,0 c -7.344,0 -10.55,-5.915 -10.55,-10.075 0,-4.648 3.092,-10.15 10.375,-10.15 6.408,0 10.675,4.779 10.675,10.55 0,6.014 -4.514,9.675 -10.5,9.675 z m 38.9,0 c -0.213,0 -0.35,-0.266 -0.35,-1.3 l 0,-14.8 c 0,-2.336 -0.084,-3.045 -0.75,-3.225 -0.393,-0.122 -0.889,-0.15 -1.1,-0.15 -0.121,0 -0.2,-0.077 -0.2,-0.2 0,-0.18 0.154,-0.225 0.425,-0.225 1.209,0 2.308,0.1 2.55,0.1 0.243,0 1.311,-0.1 2.825,-0.1 0.303,0 0.475,0.077 0.475,0.225 0,0.123 -0.076,0.2 -0.2,0.2 -0.24,0 -0.863,0.028 -1.35,0.15 -0.722,0.18 -0.964,0.824 -1.025,2.95 l -0.3,12.175 c 0.819,-0.912 3.816,-4.05 6.9,-7.3 2.81,-2.944 6.651,-6.755 6.925,-7 1.478,-1.366 1.754,-1.575 2.025,-1.575 0.182,0 0.2,0.15 0.2,1.85 l 0.075,15.125 c 0,1.548 0.048,2.068 0.925,2.25 0.303,0.061 0.529,0.075 0.65,0.075 0.18,0 0.3,0.133 0.3,0.225 0,0.151 -0.226,0.175 -0.5,0.175 -1.088,0 -1.95,-0.05 -2.25,-0.05 -0.303,0 -1.593,0.05 -2.8,0.05 -0.302,0 -0.5,-0.024 -0.5,-0.175 0,-0.092 0.02,-0.225 0.2,-0.225 0.213,0 0.816,-0.033 1.3,-0.125 0.819,-0.151 0.969,-0.73 1,-2.4 l 0.275,-12.95 c -0.816,0.852 -3.646,3.915 -6.275,6.65 -4.113,4.249 -7.979,8.399 -8.4,8.825 -0.274,0.272 -0.745,0.775 -1.05,0.775 z M 84.560077,48.025 c -0.423,0 -0.7,-0.049 -0.7,-0.2 0,-0.092 0.051,-0.225 0.2,-0.225 0.153,0 0.604,-0.009 1.025,-0.1 0.877,-0.214 1.246,-0.493 1.85,-1.95 l 6.525,-15.825 c 0.514,-1.246 0.697,-1.575 1,-1.575 0.271,0 0.423,0.404 1.15,1.95 0.604,1.277 1.791,4.06 3.425,7.825 1.360003,3.159 2.646003,6.272 2.950003,7 0.694,1.762 1.137,2.107 1.5,2.35 0.485,0.305 1.068,0.325 1.25,0.325 0.213,0 0.3,0.104 0.3,0.225 0,0.121 -0.129,0.2 -0.4,0.2 -0.786,0 -1.951,-0.075 -2.1,-0.075 -0.334,0 -1.541,0.075 -2.600003,0.075 -0.423,0 -0.6,-0.073 -0.6,-0.225 0,-0.121 0.148,-0.2 0.3,-0.2 0.302,0 0.598003,-0.009 0.900003,-0.1 0.27,-0.091 0.375,-0.338 0.375,-0.55 0,-0.213 -0.129,-0.582 -0.25,-0.975 -0.574,-1.854 -4.059003,-10.664 -5.600003,-14.125 l -5,13 c -0.391,1.032 -0.725,1.816 -0.725,2.15 0,0.183 0.026,0.356 0.3,0.475 0.241,0.092 0.649,0.125 0.95,0.125 0.183,0 0.275,0.104 0.275,0.225 0,0.121 -0.241,0.2 -0.725,0.2 -1.028,0 -2.203,-0.075 -2.475,-0.075 -0.332,0 -1.831,0.075 -3.1,0.075 z m 45.700003,0 c -0.3,0 -0.425,-0.073 -0.425,-0.225 0,-0.091 0.111,-0.15 0.2,-0.15 0.245,0 0.714,-0.019 0.925,-0.05 0.877,-0.123 1.012,-0.62 1.075,-1.5 0.058,-0.82 0.075,-1.541 0.075,-5.55 l 0,-4.575 c 0,-2.49 -0.002,-4.515 -0.15,-5.575 -0.121,-0.761 -0.186,-1.333 -0.7,-1.425 -0.242,-0.03 -0.583,-0.125 -0.825,-0.125 -0.148,0 -0.2,-0.06 -0.2,-0.15 0,-0.15 0.128,-0.225 0.4,-0.225 0.426,0 1.082,0.043 1.625,0.075 0.543,0 1.017,0.025 1.075,0.025 0.121,0 0.879,-0.018 1.725,-0.05 0.85,-0.061 1.815,-0.1 2.3,-0.1 4.535,0 6.675,2.864 6.675,5.75 0,2.914 -2.65,4.768 -4.675,5.375 1.361,1.215 2.675,2.49 2.675,4.525 0,1.368 -1.134,3.95 -5.575,3.95 -1.241,0 -2.49,-0.075 -3.125,-0.075 -0.15,0 -1.866,0.075 -3.075,0.075 z m 41.475,0 c -0.3,0 -0.4,-0.073 -0.4,-0.225 0,-0.091 0.113,-0.2 0.2,-0.2 0.245,0 0.689,-0.045 0.9,-0.075 0.877,-0.121 1.04,-0.546 1.1,-1.425 0.059,-0.821 0.05,-1.541 0.05,-5.55 l 0,-4.575 c 0,-2.489 -0.002,-4.515 -0.15,-5.575 -0.121,-0.761 -0.184,-1.252 -0.7,-1.375 -0.242,-0.061 -0.56,-0.125 -0.8,-0.125 -0.152,0 -0.225,-0.108 -0.225,-0.2 0,-0.15 0.151,-0.225 0.425,-0.225 0.424,0 1.055,0.043 1.6,0.075 0.543,0 1.042,0.025 1.1,0.025 0.121,0 1.029,-0.058 2.175,-0.15 1.15,-0.059 2.574,-0.15 3.725,-0.15 4.533,0 6.929,1.79 8.075,2.975 1.483,1.518 2.85,4 2.85,7.25 0,3.068 -1.268,5.239 -2.6,6.575 -3.145,3.189 -7.99,2.95 -10.65,2.95 -1.573,0 -3.272,-0.075 -3.575,-0.075 -0.15,0 -1.891,0.075 -3.1,0.075 z m 47.45,0 c -0.303,0 -0.4,-0.073 -0.4,-0.225 0,-0.091 0.079,-0.2 0.2,-0.2 0.179,0 0.522,-0.04 0.825,-0.1 0.574,-0.122 0.764,-0.522 0.825,-1.4 0.058,-0.821 0.075,-1.541 0.075,-5.55 l 0,-4.575 c 0,-2.489 -0.031,-4.515 -0.15,-5.575 -0.092,-0.761 -0.189,-1.252 -0.7,-1.375 -0.245,-0.061 -0.583,-0.125 -0.825,-0.125 -0.15,0 -0.2,-0.108 -0.2,-0.2 0,-0.15 0.154,-0.225 0.425,-0.225 0.817,0 2.473,0.1 2.625,0.1 0.119,0 1.845,-0.1 3.325,-0.1 0.303,0 0.425,0.102 0.425,0.225 0,0.092 -0.074,0.2 -0.225,0.2 -0.24,0 -0.805,0.064 -1.2,0.125 -0.78296,0.123 -0.88496,0.614 -0.97496,1.375 -0.121,1.06 -0.1,3.086 -0.1,5.575 l 0,4.575 c 0,4.009 -0.007,4.729 0.025,5.55 0.058,0.91 0.199,1.273 0.925,1.425 0.305,0.061 0.491,0.075 0.675,0.075 0.092,0 0.2,0.109 0.2,0.2 0,0.152 -0.12,0.225 -0.425,0.225 -0.814,0 -2.531,-0.075 -2.65,-0.075 -0.152,0 -1.823,0.075 -2.7,0.075 z m -103.15,-0.625 c 4.201,0 7.95,-3.254 7.95,-9.45 0,-7.47 -4.811,-8.725 -7.2,-8.725 -4.807,0 -8.4,3.762 -8.4,9.775 0,5.618 3.207,8.4 7.65,8.4 z m 41.825,0 c 4.203,0 7.95,-3.254 7.95,-9.45 0,-7.47 -4.786,-8.725 -7.175,-8.725 -4.809,0 -8.4,3.762 -8.4,9.775 0,5.618 3.184,8.4 7.625,8.4 z m -21.775,-0.2 c 2.662,0 3.75,-2.199 3.75,-4.175 0,-1.245 -0.449,-2.111 -1.025,-2.75 -0.543,-0.606 -1.117,-0.675 -2.6,-0.675 -0.998,0 -1.477,0.094 -1.625,0.125 -0.123,0.031 -0.2,0.093 -0.2,0.275 l 0,6.8 c 0,0.151 0.11,0.216 0.35,0.275 0.424,0.091 1.05,0.125 1.35,0.125 z m 41.85,-0.125 c 3.171,0 6.117,-0.349 8.625,-2.9 1.09,-1.093 2.5,-3.169 2.5,-6.45 0,-2.369 -0.687,-4.844 -2.075,-6.15 -1.604,-1.519 -3.776,-2.325 -6.225,-2.325 -3.14,0 -4.095,0.539 -4.425,1.025 -0.215,0.273 -0.268,1.213 -0.3,1.85 -0.029,0.487 -0.025,2.891 -0.025,5.625 l 0,8.625 c 0,0.305 0.083,0.435 0.325,0.525 0.238,0.091 1.086,0.175 1.6,0.175 z m -43.4,-8.325 c 0.424,0 1.768,0.011 2.1,-0.05 0.635,-0.12 1.471,-0.097 2.375,-0.675 2.086,-1.337 2.55,-3.547 2.55,-4.7 0,-3.311 -2.147,-4 -3.9,-4 -0.485,0 -1.6,0.04 -2.325,0.375 -0.818,0.393 -0.81,0.706 -0.9,1.95 -0.031,0.396 -0.05,3.495 -0.05,5.5 l 0,1.425 c 0,0.12 0.061,0.175 0.15,0.175 z"
       id="path26-2-2-7" /><path
       inkscape:connector-curvature="0"
       style="opacity:0.2;fill:url(#linearGradient4223);fill-opacity:1;fill-rule:evenodd;stroke:none"
       d="m 28.435077,67.6 c -3.942,-0.004 -7.321,-2.395 -8.725,-5.775 -0.446,-1.277 -1.007,-1.7 -1.725,-2.7 -0.189,-0.265 -0.414,-0.759 -0.475,-1.075 -0.062,-0.312 -0.125,-0.994 -0.225,-1.225 -0.099,-0.227 -0.343,-0.601 -0.55,-0.95 -0.208,-0.352 -0.792,-1.375 -1.1,-1.925 -0.64,-1.144 -1.412,-2.414 -1.725,-3.675 -0.246,-0.995 0.261,-2.069 0.95,-2.8 0.308,-0.324 0.865,-0.574 1.375,-0.7 0.51,-0.127 0.801,-0.213 1.175,-0.2 0.636,0.019 1.121,0.605 1.575,0.975 0.548,0.446 1.183,0.99 1.9,1.15 -0.217,-0.565 -0.404,-1.193 -0.75,-1.7 -0.147,-0.215 -0.671,-0.898 -1.025,-1.325 -0.657,-0.792 -1.305,-1.567 -1.8,-2.475 -0.232,-0.43 -0.226,-0.525 -0.275,-0.525 -0.035,0 -0.252,0.065 -0.425,0.125 -1.584,0.552 -2.9,0.748 -4.275,1.75 -0.518,0.379 -1.089,0.836 -1.775,0.825 -0.5610005,-0.01 -1.1820005,-0.324 -1.6000005,-0.675 -0.926,-0.772 -1.828,-1.393 -2.9,-1.975 -0.44,-0.242 -0.793,-0.464 -1.05,-0.6 -0.628,-0.34 -1.242,-0.585 -1.75,-1.1 -0.21,-0.21 -0.652,-0.806 -0.825,-1.05 -0.616,-0.859 -1.367,-1.499 -2.07499998,-2.25 -0.237,-0.249 -0.575,-0.602 -0.175,-0.875 0.745,-0.508 2.35499998,-0.559 3.12499998,-0.175 0.448,0.224 0.578,0.407 0.65,0.6 0.195,0.508 0.18,1.139 0.25,1.675 0.081,0.645 0.726,0.395 1.15,0.5 0.231,0.058 0.736,0.792 0.9,0.975 0.134,0.151 0.796,0.874 0.95,1 0.153,0.128 0.648,0.485 1.2,0.6 0.801,0.167 2.1080005,0.268 2.8750005,-0.075 0.962,-0.438 1.873,-1.104 2.675,-1.775 0.369,-0.307 0.87,-0.757 1.1,-0.925 0.664,-0.497 0.368,-0.652 -0.225,-1.025 -0.276,-0.176 -1.129,-0.453 -1.65,-0.575 -1.275,-0.294 -2.604,-0.414 -3.9000005,-0.6 -0.489,-0.069 -1.541,-0.137 -2,-0.35 -0.385,-0.178 -0.604,-0.684 -0.75,-1.05 -0.177,-0.439 -0.351,-0.77 -0.375,-1.025 -0.063,-0.638 0.219,-1.039 0.65,-1.475 0.771,-0.785 1.728,-1.288 2.6,-1.95 0.529,-0.397 1.3600005,-1.055 1.6750005,-1.325 0.312,-0.272 0.784,-0.695 1,-0.85 0.973,-0.716 1.949,-0.678 3.1,-0.65 0.544,0.013 1.049,-0.098 1.575,-0.2 0.274,-0.053 0.95,-0.179 0.95,0.275 0,0.862 -0.554,2.618 -1.275,3.15 -0.477,0.353 -1.128,0.543 -1.65,0.175 -0.217,-0.156 -0.618,-0.553 -0.775,-0.7 -0.159,-0.145 -0.227,-0.212 -0.325,-0.25 -0.098,-0.035 -0.183,-0.025 -0.275,0 -0.091,0.022 -0.168,0.187 -0.2,0.275 -0.155,0.462 -1.007,0.436 -1.45,0.675 -0.343,0.18896 -1.003,0.62696 -1.45,1.02496 -0.4460005,0.399 -0.7080005,0.674 -0.8500005,0.8 -0.172,0.158 -0.244,0.261 0.025,0.325 0.097,0.024 1.1080005,0.17 1.4750005,0.2 1.129,0.092 2.265,0.225 3.4,0.225 0.367,0 1.085,-0.033 1.65,-0.125 0.925,-0.146 1.857,-0.16 2.775,0.025 0,0 0.569,-0.555 0.725,-0.725 0.271,-0.296 1.406,-1.362 2.275,-2.05 1.772,-1.4 3.671,-2.339 5.775,-3.15 1.404,-0.541 3.025,-0.96 4.525,-1.175 0.353,-0.054 0.316,-0.068 0.375,-0.375 0.34,-1.781 1.405,-3.08 2.475,-4.5 0.461,-0.605 0.495,-0.857 -0.025,-1.45 -0.901,-1.03 -2.158,-1.707 -3.525,-1.875 -0.546,-0.067 -1.202,0.012 -1.725,-0.175 -0.975,-0.35596 -1.841,-1.07496 -2.375,-1.94996 -0.314,-0.513 -0.66,-1.211 -0.8,-1.625 -0.142,-0.416 -0.212,-0.573 -0.175,-0.8 0.037,-0.224 0.249,-0.374 0.675,-0.525 0.701,-0.245 2.186,-0.213 2.6,0.525 0.128,0.231 0.125,0.492 0.125,0.7 0,0.352 -0.062,0.738 0.35,0.925 0.161,0.072 0.39,0.088 0.5,0.1 0.471,0.05 0.665,0.312 0.975,0.625 0.152,0.158 0.592,0.621 1.1,0.825 0.864,0.351 1.808,0.453 2.55,0.55 1.09,0.141 2.417,0.26 3.45,0.65 0.399,0.151 0.652,0.238 0.775,0.75 0.24,0.997 -0.151,1.563 -0.525,2.475 -0.214,0.524 0.156,0.845 0.375,1.3 0.116,0.242 0.225,0.537 0.275,0.625 0.114,0.218 0.276,0.034 0.425,-0.075 1.632,-1.18 4.042,-1.639 6.025,-1.95 1.631,-0.26 3.865,-0.087 5.175,-0.525 1.037,-0.342 1.45,-1.114 1.925,-2.025 0.578,-1.104 0.92,-2.062 0.9,-3.325 -0.01104,-0.729 -0.032,-0.961 -0.325,-1.625 -0.294,-0.663 -0.665,-1.306 -0.85,-1.75 -0.138,-0.327 -0.697,-1.415 -0.25,-1.7 0.171,-0.107 0.51,-0.137 1,-0.125 0.72,0.013 1.466,0.228 2.15,0.45 0.281,0.088 0.502,0.189 0.65,0.45 0.148,0.259 0.078,0.443 0,0.675 -0.07896,0.227 -0.152,0.403 -0.25,0.65 -0.098,0.246 -0.206,0.543 -0.225,0.7 -0.01904,0.156 0.026,1.089 0.05,1.325 0.02496,0.235 0.096,0.641 0.2,0.925 0.269,0.656 0.579,0.612 0.15,1.4 -0.091,0.17 -0.465,0.92 -0.6,1.325 -0.134,0.405 -0.359,1.143 -0.5,1.7 -0.201,0.801 -0.3,2.239 -0.975,2.825 -0.736,0.645 -2.741,0.867 -3.725,1.2 -1.12,0.381 -2.331,1.37 -2.4,2.625 -0.054,1.031 0.101,2.055 0.175,3.075 0.08,1.118 0.273,2.363 0.25,3.475 -0.04096,1.903 -1.304,3.509 -2.9,4.475 -1.95,1.176 -3.552,1.783 -5.8,2.2 -0.593,0.10796 -1.797,0.09 -2.35,0.32496 -0.653,0.279 -1.164,1.279 -1.525,1.825 -0.443,0.671 -1.242,1.506 -1.375,2.325 -0.202,1.242 -0.144,2.525 -0.325,3.775 -0.103,0.703 -0.362,1.331 -0.575,1.875 -1.537,-0.869 -3.328,-1.375 -5.225,-1.375 -3.865,0 -7,3.076 -7,6.875 0,3.802 3.135,6.9 7,6.9 2.682,0 4.875,-2.158 4.875,-4.8 0,-2.638 -2.193,-4.775 -4.875,-4.775 -1.767,0 -3.2,1.412 -3.2,3.15 0,1.736 1.433,3.15 3.2,3.15 0.862,0 1.575,-0.7 1.575,-1.55 0,-0.846 -0.713,-1.525 -1.575,-1.525 -0.605,0 -1.1,0.48 -1.1,1.075 0,0.297 0.125,0.581 0.325,0.775 0.151,0.152 0.117,0.196 -0.075,0.125 -0.779,-0.328 -1.325,-1.089 -1.325,-1.975 0,-1.185 0.969,-2.15 2.175,-2.15 2.092,0 3.8,1.69 3.8,3.75 0,2.061 -1.708,3.725 -3.8,3.725 -3.226,0 -5.85,-2.577 -5.85,-5.75 0,-3.174 2.624,-5.75 5.85,-5.75 4.853,0 8.8,3.877 8.8,8.65 0,4.774 -3.947,8.654 -8.8,8.65 z m -9.175,-10.9 c 0.299,0.0229 0.591,0.0185 0.9,-0.025 0.087,-0.156 0.135,-0.334 0.125,-0.525 -0.032,-0.534 -0.481,-0.954 -1.025,-0.925 -0.675,0.036 -0.593,0.214 -1.275,-0.225 -0.243,-0.236 -0.563,-0.036 -0.375,0.275 l 0.775,1.27496 c 0.289,0.083 0.576,0.12712 0.875,0.15 z m 206.200003,-3 c -0.152,0 -0.339,-0.096 -0.85,-0.4 -0.211,-0.122 -3.037,-1.816 -4.125,-2.575 -0.148,-0.092 -0.2,-0.16 -0.2,-0.25 0,-0.122 0.087,-0.175 0.15,-0.175 0.058,0 0.237,0.059 0.45,0.15 0.998,0.425 3.115,1.123 4.6,1.275 0.511,0.061 0.808,0 0.9,0 0.121,0 0.275,0.077 0.125,0.35 -0.332,0.605 -0.537,1.044 -0.75,1.35 -0.148,0.212 -0.21,0.275 -0.3,0.275 z M 76.710077,51.875 c -3.841,0 -6.25,-2.226 -6.25,-5.475 0,-2.066 0.721,-3.933 3.925,-6.575 l 1.35,-1.125 c 2.601,-2.157 3.475,-3.38 3.475,-5.475 0,-1.945 -1.423,-4.05 -4.325,-4.05 -2.027,0 -4.021,0.853 -4.475,3.1 -0.091,0.425 -0.075,0.852 -0.075,1.125 0,0.244 -0.043,0.35 -0.225,0.35 -0.15,0 -0.194,-0.167 -0.225,-0.5 -0.03,-0.488 -0.15,-1.707 -0.15,-3.225 0,-0.82 0.026,-0.938 0.45,-1.15 1.238,-0.607 2.627,-0.825 4.05,-0.825 1.631,0 3.249,0.364 4.55,1.275 2.085,1.488 2.575,3.805 2.575,5.05 0,2.431 -0.833,4.326 -4.4,7.15 l -0.85,0.65 c -2.902,2.279 -3.7,3.37 -3.7,5.1 0,2.218 1.64,3.525 3.725,3.525 2.782,0 3.593,-1.266 3.775,-1.6 0.182,-0.333 0.371,-1.159 0.4,-1.525 0.032,-0.243 0.044,-0.4 0.225,-0.4 0.151,0 0.225,0.215 0.225,0.7 -4e-5,2.065 0.12496,3.07 0.12496,3.225 0,0.151 -0.058,0.225 -0.3,0.225 -0.242,0 -0.499,0.028 -1.075,0.15 -0.756,0.184 -1.621,0.3 -2.8,0.3 z m 39.475003,-3.5 c -7.345,0 -10.55,-5.915 -10.55,-10.075 0,-4.648 3.115,-10.15 10.4,-10.15 6.408,0 10.675,4.779 10.675,10.55 0,6.014 -4.539,9.675 -10.525,9.675 z m 41.85,0 c -7.344,0 -10.55,-5.915 -10.55,-10.075 0,-4.648 3.092,-10.15 10.375,-10.15 6.408,0 10.675,4.779 10.675,10.55 0,6.014 -4.514,9.675 -10.5,9.675 z m 38.9,0 c -0.213,0 -0.35,-0.266 -0.35,-1.3 l 0,-14.8 c 0,-2.336 -0.084,-3.045 -0.75,-3.225 -0.393,-0.122 -0.889,-0.15 -1.1,-0.15 -0.121,0 -0.2,-0.077 -0.2,-0.2 0,-0.18 0.154,-0.225 0.425,-0.225 1.209,0 2.308,0.1 2.55,0.1 0.243,0 1.311,-0.1 2.825,-0.1 0.303,0 0.475,0.077 0.475,0.225 0,0.123 -0.076,0.2 -0.2,0.2 -0.24,0 -0.863,0.028 -1.35,0.15 -0.722,0.18 -0.964,0.824 -1.025,2.95 l -0.3,12.175 c 0.819,-0.912 3.816,-4.05 6.9,-7.3 2.81,-2.944 6.651,-6.755 6.925,-7 1.478,-1.366 1.754,-1.575 2.025,-1.575 0.182,0 0.2,0.15 0.2,1.85 l 0.075,15.125 c 0,1.548 0.048,2.068 0.925,2.25 0.30304,0.061 0.52904,0.075 0.65004,0.075 0.18,0 0.3,0.133 0.3,0.225 0,0.151 -0.226,0.175 -0.5,0.175 -1.088,0 -1.95,-0.05 -2.25,-0.05 -0.303,0 -1.593,0.05 -2.8,0.05 -0.302,0 -0.5,-0.024 -0.5,-0.175 0,-0.092 0.02,-0.225 0.2,-0.225 0.213,0 0.816,-0.033 1.3,-0.125 0.819,-0.151 0.969,-0.73 1,-2.4 l 0.275,-12.95 c -0.816,0.852 -3.646,3.915 -6.275,6.65 -4.113,4.249 -7.979,8.399 -8.4,8.825 -0.274,0.272 -0.745,0.775 -1.05,0.775 z M 84.560077,48.025 c -0.423,0 -0.7,-0.049 -0.7,-0.2 0,-0.092 0.051,-0.225 0.2,-0.225 0.153,0 0.604,-0.009 1.025,-0.1 0.877,-0.214 1.246,-0.493 1.85,-1.95 l 6.525,-15.825 c 0.514,-1.246 0.697,-1.575 1,-1.575 0.271,0 0.423,0.404 1.15,1.95 0.604,1.277 1.791,4.06 3.425,7.825 1.360003,3.159 2.646003,6.272 2.950003,7 0.694,1.762 1.137,2.107 1.5,2.35 0.485,0.305 1.068,0.325 1.25,0.325 0.213,0 0.3,0.104 0.3,0.225 0,0.121 -0.129,0.2 -0.4,0.2 -0.786,0 -1.951,-0.075 -2.1,-0.075 -0.334,0 -1.541,0.075 -2.600003,0.075 -0.423,0 -0.6,-0.073 -0.6,-0.225 0,-0.121 0.148,-0.2 0.3,-0.2 0.302,0 0.598003,-0.009 0.900003,-0.1 0.27,-0.091 0.375,-0.338 0.375,-0.55 0,-0.213 -0.129,-0.582 -0.25,-0.975 -0.574,-1.854 -4.059003,-10.664 -5.600003,-14.125 l -5,13 c -0.391,1.032 -0.725,1.816 -0.725,2.15 0,0.183 0.026,0.356 0.3,0.475 0.241,0.092 0.649,0.125 0.95,0.125 0.183,0 0.275,0.104 0.275,0.225 0,0.121 -0.241,0.2 -0.725,0.2 -1.028,0 -2.203,-0.075 -2.475,-0.075 -0.332,0 -1.831,0.075 -3.1,0.075 z m 45.700003,0 c -0.3,0 -0.425,-0.073 -0.425,-0.225 0,-0.091 0.111,-0.15 0.2,-0.15 0.245,0 0.714,-0.019 0.925,-0.05 0.877,-0.123 1.012,-0.62 1.075,-1.5 0.058,-0.82 0.075,-1.541 0.075,-5.55 l 0,-4.575 c 0,-2.49 -0.002,-4.515 -0.15,-5.575 -0.121,-0.761 -0.186,-1.333 -0.7,-1.425 -0.242,-0.03 -0.583,-0.125 -0.825,-0.125 -0.148,0 -0.2,-0.06 -0.2,-0.15 0,-0.15 0.128,-0.225 0.4,-0.225 0.426,0 1.082,0.043 1.625,0.075 0.543,0 1.017,0.025 1.075,0.025 0.121,0 0.879,-0.018 1.725,-0.05 0.85,-0.061 1.815,-0.1 2.3,-0.1 4.535,0 6.675,2.864 6.675,5.75 0,2.914 -2.65,4.768 -4.675,5.375 1.361,1.215 2.675,2.49 2.675,4.525 0,1.368 -1.134,3.95 -5.575,3.95 -1.241,0 -2.49,-0.075 -3.125,-0.075 -0.15,0 -1.866,0.075 -3.075,0.075 z m 41.475,0 c -0.3,0 -0.4,-0.073 -0.4,-0.225 0,-0.091 0.113,-0.2 0.2,-0.2 0.245,0 0.689,-0.045 0.9,-0.075 0.877,-0.121 1.04,-0.546 1.1,-1.425 0.059,-0.821 0.05,-1.541 0.05,-5.55 l 0,-4.575 c 0,-2.489 -0.002,-4.515 -0.15,-5.575 -0.121,-0.761 -0.184,-1.252 -0.7,-1.375 -0.242,-0.061 -0.56,-0.125 -0.8,-0.125 -0.152,0 -0.225,-0.108 -0.225,-0.2 0,-0.15 0.151,-0.225 0.425,-0.225 0.424,0 1.055,0.043 1.6,0.075 0.543,0 1.042,0.025 1.1,0.025 0.121,0 1.029,-0.058 2.175,-0.15 1.15,-0.059 2.574,-0.15 3.725,-0.15 4.533,0 6.929,1.79 8.075,2.975 1.483,1.518 2.85,4 2.85,7.25 0,3.068 -1.268,5.239 -2.6,6.575 -3.145,3.189 -7.99,2.95 -10.65,2.95 -1.573,0 -3.272,-0.075 -3.575,-0.075 -0.15,0 -1.891,0.075 -3.1,0.075 z m 47.45,0 c -0.303,0 -0.4,-0.073 -0.4,-0.225 0,-0.091 0.079,-0.2 0.2,-0.2 0.179,0 0.522,-0.04 0.825,-0.1 0.574,-0.122 0.764,-0.522 0.825,-1.4 0.058,-0.821 0.075,-1.541 0.075,-5.55 l 0,-4.575 c 0,-2.489 -0.031,-4.515 -0.15,-5.575 -0.092,-0.761 -0.189,-1.252 -0.7,-1.375 -0.245,-0.061 -0.583,-0.125 -0.825,-0.125 -0.15,0 -0.2,-0.108 -0.2,-0.2 0,-0.15 0.154,-0.225 0.425,-0.225 0.817,0 2.473,0.1 2.625,0.1 0.119,0 1.845,-0.1 3.325,-0.1 0.303,0 0.425,0.102 0.425,0.225 0,0.092 -0.074,0.2 -0.225,0.2 -0.24,0 -0.805,0.064 -1.2,0.125 -0.78296,0.123 -0.88496,0.614 -0.97496,1.375 -0.121,1.06 -0.1,3.086 -0.1,5.575 l 0,4.575 c 0,4.009 -0.007,4.729 0.025,5.55 0.058,0.91 0.199,1.273 0.925,1.425 0.30508,0.061 0.49108,0.075 0.67508,0.075 0.092,0 0.2,0.109 0.2,0.2 0,0.152 -0.12,0.225 -0.425,0.225 -0.814,0 -2.531,-0.075 -2.65,-0.075 -0.152,0 -1.823,0.075 -2.7,0.075 z m -103.15,-0.625 c 4.201,0 7.95,-3.254 7.95,-9.45 0,-7.47 -4.811,-8.725 -7.2,-8.725 -4.807,0 -8.4,3.762 -8.4,9.775 0,5.618 3.207,8.4 7.65,8.4 z m 41.825,0 c 4.203,0 7.95,-3.254 7.95,-9.45 0,-7.47 -4.786,-8.725 -7.175,-8.725 -4.809,0 -8.4,3.762 -8.4,9.775 0,5.618 3.184,8.4 7.625,8.4 z m -21.775,-0.2 c 2.662,0 3.75,-2.199 3.75,-4.175 0,-1.245 -0.449,-2.111 -1.025,-2.75 -0.543,-0.606 -1.117,-0.675 -2.6,-0.675 -0.998,0 -1.477,0.094 -1.625,0.125 -0.123,0.031 -0.2,0.093 -0.2,0.275 l 0,6.8 c 0,0.151 0.11,0.216 0.35,0.275 0.424,0.091 1.05,0.125 1.35,0.125 z m 41.85,-0.125 c 3.171,0 6.117,-0.349 8.625,-2.9 1.09,-1.093 2.5,-3.169 2.5,-6.45 0,-2.369 -0.687,-4.844 -2.075,-6.15 -1.604,-1.519 -3.776,-2.325 -6.225,-2.325 -3.14,0 -4.095,0.539 -4.425,1.025 -0.215,0.273 -0.268,1.213 -0.3,1.85 -0.029,0.487 -0.025,2.891 -0.025,5.625 l 0,8.625 c 0,0.305 0.083,0.435 0.325,0.525 0.238,0.091 1.086,0.175 1.6,0.175 z m -43.4,-8.325 c 0.424,0 1.768,0.011 2.1,-0.05 0.635,-0.12 1.471,-0.097 2.375,-0.675 2.086,-1.337 2.55,-3.547 2.55,-4.7 0,-3.311 -2.147,-4 -3.9,-4 -0.485,0 -1.6,0.04 -2.325,0.375 -0.818,0.393 -0.81,0.706 -0.9,1.95 -0.031,0.396 -0.05,3.495 -0.05,5.5 l 0,1.425 c 0,0.12 0.061,0.175 0.15,0.175 z"
       id="path26-2-2-7-0" /><path
       inkscape:connector-curvature="0"
       style="fill:#00654e;fill-opacity:1;fill-rule:evenodd;stroke:none"
       d="m 28.435077,147.59988 c -3.942,-0.004 -7.321,-2.395 -8.725,-5.775 -0.446,-1.277 -1.007,-1.7 -1.725,-2.7 -0.189,-0.265 -0.414,-0.759 -0.475,-1.075 -0.062,-0.312 -0.125,-0.994 -0.225,-1.225 -0.099,-0.227 -0.343,-0.601 -0.55,-0.95 -0.208,-0.352 -0.792,-1.375 -1.1,-1.925 -0.64,-1.144 -1.412,-2.414 -1.725,-3.675 -0.246,-0.995 0.261,-2.069 0.95,-2.8 0.308,-0.324 0.865,-0.574 1.375,-0.7 0.51,-0.127 0.801,-0.213 1.175,-0.2 0.636,0.019 1.121,0.605 1.575,0.975 0.548,0.446 1.183,0.99 1.9,1.15 -0.217,-0.565 -0.404,-1.193 -0.75,-1.7 -0.147,-0.215 -0.671,-0.898 -1.025,-1.325 -0.657,-0.792 -1.305,-1.567 -1.8,-2.475 -0.232,-0.43 -0.226,-0.525 -0.275,-0.525 -0.035,0 -0.252,0.065 -0.425,0.125 -1.584,0.552 -2.9,0.748 -4.275,1.75 -0.518,0.379 -1.089,0.836 -1.775,0.825 -0.5610005,-0.01 -1.1820005,-0.324 -1.6000005,-0.675 -0.926,-0.772 -1.828,-1.393 -2.9,-1.975 -0.44,-0.242 -0.793,-0.464 -1.05,-0.6 -0.628,-0.34 -1.242,-0.585 -1.75,-1.1 -0.21,-0.21 -0.652,-0.806 -0.825,-1.05 -0.616,-0.859 -1.367,-1.499 -2.07499998,-2.25 -0.237,-0.249 -0.575,-0.602 -0.175,-0.875 0.745,-0.508 2.35499998,-0.559 3.12499998,-0.175 0.448,0.224 0.578,0.407 0.65,0.6 0.195,0.508 0.18,1.139 0.25,1.675 0.081,0.645 0.726,0.395 1.15,0.5 0.231,0.058 0.736,0.792 0.9,0.975 0.134,0.151 0.796,0.874 0.95,1 0.153,0.128 0.648,0.485 1.2,0.6 0.801,0.167 2.1080005,0.268 2.8750005,-0.075 0.962,-0.438 1.873,-1.104 2.675,-1.775 0.369,-0.307 0.87,-0.757 1.1,-0.925 0.664,-0.497 0.368,-0.652 -0.225,-1.025 -0.276,-0.176 -1.129,-0.453 -1.65,-0.575 -1.275,-0.294 -2.604,-0.414 -3.9000005,-0.6 -0.489,-0.069 -1.541,-0.137 -2,-0.35 -0.385,-0.178 -0.604,-0.684 -0.75,-1.05 -0.177,-0.439 -0.351,-0.77 -0.375,-1.025 -0.063,-0.638 0.219,-1.039 0.65,-1.475 0.771,-0.785 1.728,-1.288 2.6,-1.95 0.529,-0.397 1.3600005,-1.055 1.6750005,-1.325 0.312,-0.272 0.784,-0.695 1,-0.85 0.973,-0.716 1.949,-0.678 3.1,-0.65 0.544,0.013 1.049,-0.098 1.575,-0.2 0.274,-0.053 0.95,-0.179 0.95,0.275 0,0.862 -0.554,2.618 -1.275,3.15 -0.477,0.353 -1.128,0.543 -1.65,0.175 -0.217,-0.156 -0.618,-0.553 -0.775,-0.7 -0.159,-0.145 -0.227,-0.212 -0.325,-0.25 -0.098,-0.035 -0.183,-0.025 -0.275,0 -0.091,0.022 -0.168,0.187 -0.2,0.275 -0.155,0.462 -1.007,0.436 -1.45,0.675 -0.343,0.18896 -1.003,0.62696 -1.45,1.02496 -0.4460005,0.399 -0.7080005,0.674 -0.8500005,0.8 -0.172,0.158 -0.244,0.261 0.025,0.325 0.097,0.024 1.1080005,0.17 1.4750005,0.2 1.129,0.092 2.265,0.225 3.4,0.225 0.367,0 1.085,-0.033 1.65,-0.125 0.925,-0.146 1.857,-0.16 2.775,0.025 0,0 0.569,-0.555 0.725,-0.725 0.271,-0.296 1.406,-1.362 2.275,-2.05 1.772,-1.4 3.671,-2.339 5.775,-3.15 1.404,-0.541 3.025,-0.96 4.525,-1.175 0.353,-0.054 0.316,-0.068 0.375,-0.375 0.34,-1.781 1.405,-3.08 2.475,-4.5 0.461,-0.605 0.495,-0.857 -0.025,-1.45 -0.901,-1.030002 -2.158,-1.707002 -3.525,-1.875002 -0.546,-0.067 -1.202,0.012 -1.725,-0.175 -0.975,-0.35596 -1.841,-1.07496 -2.375,-1.94996 -0.314,-0.513 -0.66,-1.211 -0.8,-1.625 -0.142,-0.416 -0.212,-0.573 -0.175,-0.8 0.037,-0.224 0.249,-0.374 0.675,-0.525 0.701,-0.245 2.186,-0.213 2.6,0.525 0.128,0.231 0.125,0.492 0.125,0.7 0,0.352 -0.062,0.738 0.35,0.925 0.161,0.072 0.39,0.088 0.5,0.1 0.471,0.05 0.665,0.312 0.975,0.625 0.152,0.158 0.592,0.621 1.1,0.825 0.864,0.351 1.808,0.453 2.55,0.55 1.09,0.141 2.417,0.26 3.45,0.65 0.399,0.151 0.652,0.238 0.775,0.75 0.24,0.997002 -0.151,1.563002 -0.525,2.475002 -0.214,0.524 0.156,0.845 0.375,1.3 0.116,0.242 0.225,0.537 0.275,0.625 0.114,0.218 0.276,0.034 0.425,-0.075 1.632,-1.18 4.042,-1.639 6.025,-1.95 1.631,-0.26 3.865,-0.087 5.175,-0.525 1.037,-0.342 1.45,-1.114 1.925,-2.025002 0.578,-1.104 0.92,-2.062 0.9,-3.325 -0.01104,-0.729 -0.032,-0.961 -0.325,-1.625 -0.294,-0.663 -0.665,-1.306 -0.85,-1.75 -0.138,-0.327 -0.697,-1.415 -0.25,-1.7 0.171,-0.107 0.51,-0.137 1,-0.125 0.72,0.013 1.466,0.228 2.15,0.45 0.281,0.088 0.502,0.189 0.65,0.45 0.148,0.259 0.078,0.443 0,0.675 -0.07896,0.227 -0.152,0.403 -0.25,0.65 -0.098,0.246 -0.206,0.543 -0.225,0.7 -0.01904,0.156 0.026,1.089 0.05,1.325 0.02496,0.235 0.096,0.641 0.2,0.925 0.269,0.656 0.579,0.612 0.15,1.4 -0.091,0.17 -0.465,0.92 -0.6,1.325 -0.134,0.405 -0.359,1.143 -0.5,1.700002 -0.201,0.801 -0.3,2.239 -0.975,2.825 -0.736,0.645 -2.741,0.867 -3.725,1.2 -1.12,0.381 -2.331,1.37 -2.4,2.625 -0.054,1.031 0.101,2.055 0.175,3.075 0.08,1.118 0.273,2.363 0.25,3.475 -0.04096,1.903 -1.304,3.509 -2.9,4.475 -1.95,1.176 -3.552,1.783 -5.8,2.2 -0.593,0.10796 -1.797,0.09 -2.35,0.32496 -0.653,0.279 -1.164,1.279 -1.525,1.825 -0.443,0.671 -1.242,1.506 -1.375,2.325 -0.202,1.242 -0.144,2.525 -0.325,3.775 -0.103,0.703 -0.362,1.331 -0.575,1.875 -1.537,-0.869 -3.328,-1.375 -5.225,-1.375 -3.865,0 -7,3.076 -7,6.875 0,3.802 3.135,6.9 7,6.9 2.682,0 4.875,-2.158 4.875,-4.8 0,-2.638 -2.193,-4.775 -4.875,-4.775 -1.767,0 -3.2,1.412 -3.2,3.15 0,1.736 1.433,3.15 3.2,3.15 0.862,0 1.575,-0.7 1.575,-1.55 0,-0.846 -0.713,-1.525 -1.575,-1.525 -0.605,0 -1.1,0.48 -1.1,1.075 0,0.297 0.125,0.581 0.325,0.775 0.151,0.152 0.117,0.196 -0.075,0.125 -0.779,-0.328 -1.325,-1.089 -1.325,-1.975 0,-1.185 0.969,-2.15 2.175,-2.15 2.092,0 3.8,1.69 3.8,3.75 0,2.061 -1.708,3.725 -3.8,3.725 -3.226,0 -5.85,-2.577 -5.85,-5.75 0,-3.174 2.624,-5.75 5.85,-5.75 4.853,0 8.8,3.877 8.8,8.65 0,4.774 -3.947,8.654 -8.8,8.65 z m -9.175,-10.9 c 0.299,0.0229 0.591,0.0185 0.9,-0.025 0.087,-0.156 0.135,-0.334 0.125,-0.525 -0.032,-0.534 -0.481,-0.954 -1.025,-0.925 -0.675,0.036 -0.593,0.214 -1.275,-0.225 -0.243,-0.236 -0.563,-0.036 -0.375,0.275 l 0.775,1.27496 c 0.289,0.083 0.576,0.12712 0.875,0.15 z m 206.200003,-3 c -0.152,0 -0.339,-0.096 -0.85,-0.4 -0.211,-0.122 -3.037,-1.816 -4.125,-2.575 -0.148,-0.092 -0.2,-0.16 -0.2,-0.25 0,-0.122 0.087,-0.175 0.15,-0.175 0.058,0 0.237,0.059 0.45,0.15 0.998,0.425 3.115,1.123 4.6,1.275 0.511,0.061 0.808,0 0.9,0 0.121,0 0.275,0.077 0.125,0.35 -0.332,0.605 -0.537,1.044 -0.75,1.35 -0.148,0.212 -0.21,0.275 -0.3,0.275 z m -148.750003,-1.825 c -3.841,0 -6.25,-2.226 -6.25,-5.475 0,-2.066 0.721,-3.933 3.925,-6.575 l 1.35,-1.125 c 2.601,-2.157 3.475,-3.38 3.475,-5.475 0,-1.945 -1.423,-4.05 -4.325,-4.05 -2.027,0 -4.021,0.853 -4.475,3.1 -0.091,0.425 -0.075,0.852 -0.075,1.125 0,0.244 -0.043,0.35 -0.225,0.35 -0.15,0 -0.194,-0.167 -0.225,-0.5 -0.03,-0.488 -0.15,-1.707 -0.15,-3.225 0,-0.82 0.026,-0.938 0.45,-1.15 1.238,-0.607 2.627,-0.825 4.05,-0.825 1.631,0 3.249,0.364 4.55,1.275 2.085,1.488 2.575,3.805 2.575,5.05 0,2.431 -0.833,4.326 -4.4,7.15 l -0.85,0.65 c -2.902,2.279 -3.7,3.37 -3.7,5.1 0,2.218 1.64,3.525 3.725,3.525 2.782,0 3.593,-1.266 3.775,-1.6 0.182,-0.333 0.371,-1.159 0.4,-1.525 0.032,-0.243 0.044,-0.4 0.225,-0.4 0.151,0 0.225,0.215 0.225,0.7 -4e-5,2.065 0.12496,3.07 0.12496,3.225 0,0.151 -0.058,0.225 -0.3,0.225 -0.242,0 -0.499,0.028 -1.075,0.15 -0.756,0.184 -1.621,0.3 -2.8,0.3 z m 39.475003,-3.5 c -7.345,0 -10.55,-5.915 -10.55,-10.075 0,-4.648 3.115,-10.15 10.4,-10.15 6.408,0 10.675,4.779 10.675,10.55 0,6.014 -4.539,9.675 -10.525,9.675 z m 41.85,0 c -7.344,0 -10.55,-5.915 -10.55,-10.075 0,-4.648 3.092,-10.15 10.375,-10.15 6.408,0 10.675,4.779 10.675,10.55 0,6.014 -4.514,9.675 -10.5,9.675 z m 38.9,0 c -0.213,0 -0.35,-0.266 -0.35,-1.3 l 0,-14.8 c 0,-2.336 -0.084,-3.045 -0.75,-3.225 -0.393,-0.122 -0.889,-0.15 -1.1,-0.15 -0.121,0 -0.2,-0.077 -0.2,-0.2 0,-0.18 0.154,-0.225 0.425,-0.225 1.209,0 2.308,0.1 2.55,0.1 0.243,0 1.311,-0.1 2.825,-0.1 0.303,0 0.475,0.077 0.475,0.225 0,0.123 -0.076,0.2 -0.2,0.2 -0.24,0 -0.863,0.028 -1.35,0.15 -0.722,0.18 -0.964,0.824 -1.025,2.95 l -0.3,12.175 c 0.819,-0.912 3.816,-4.05 6.9,-7.3 2.81,-2.944 6.651,-6.755 6.925,-7 1.478,-1.366 1.754,-1.575 2.025,-1.575 0.182,0 0.2,0.15 0.2,1.85 l 0.075,15.125 c 0,1.548 0.048,2.068 0.925,2.25 0.30304,0.061 0.52904,0.075 0.65004,0.075 0.18,0 0.3,0.133 0.3,0.225 0,0.151 -0.226,0.175 -0.5,0.175 -1.088,0 -1.95,-0.05 -2.25,-0.05 -0.303,0 -1.593,0.05 -2.8,0.05 -0.302,0 -0.5,-0.024 -0.5,-0.175 0,-0.092 0.02,-0.225 0.2,-0.225 0.213,0 0.816,-0.033 1.3,-0.125 0.819,-0.151 0.969,-0.73 1,-2.4 l 0.275,-12.95 c -0.816,0.852 -3.646,3.915 -6.275,6.65 -4.113,4.249 -7.979,8.399 -8.4,8.825 -0.274,0.272 -0.745,0.775 -1.05,0.775 z m -112.375003,-0.35 c -0.423,0 -0.7,-0.049 -0.7,-0.2 0,-0.092 0.051,-0.225 0.2,-0.225 0.153,0 0.604,-0.009 1.025,-0.1 0.877,-0.214 1.246,-0.493 1.85,-1.95 l 6.525,-15.825 c 0.514,-1.246 0.697,-1.575 1,-1.575 0.271,0 0.423,0.404 1.15,1.95 0.604,1.277 1.791,4.06 3.425,7.825 1.360003,3.159 2.646003,6.272 2.950003,7 0.694,1.762 1.137,2.107 1.5,2.35 0.485,0.305 1.068,0.325 1.25,0.325 0.213,0 0.3,0.104 0.3,0.225 0,0.121 -0.129,0.2 -0.4,0.2 -0.786,0 -1.951,-0.075 -2.1,-0.075 -0.334,0 -1.541,0.075 -2.600003,0.075 -0.423,0 -0.6,-0.073 -0.6,-0.225 0,-0.121 0.148,-0.2 0.3,-0.2 0.302,0 0.598003,-0.009 0.900003,-0.1 0.27,-0.091 0.375,-0.338 0.375,-0.55 0,-0.213 -0.129,-0.582 -0.25,-0.975 -0.574,-1.854 -4.059003,-10.664 -5.600003,-14.125 l -5,13 c -0.391,1.032 -0.725,1.816 -0.725,2.15 0,0.183 0.026,0.356 0.3,0.475 0.241,0.092 0.649,0.125 0.95,0.125 0.183,0 0.275,0.104 0.275,0.225 0,0.121 -0.241,0.2 -0.725,0.2 -1.028,0 -2.203,-0.075 -2.475,-0.075 -0.332,0 -1.831,0.075 -3.1,0.075 z m 45.700003,0 c -0.3,0 -0.425,-0.073 -0.425,-0.225 0,-0.091 0.111,-0.15 0.2,-0.15 0.245,0 0.714,-0.019 0.925,-0.05 0.877,-0.123 1.012,-0.62 1.075,-1.5 0.058,-0.82 0.075,-1.541 0.075,-5.55 l 0,-4.575 c 0,-2.49 -0.002,-4.515 -0.15,-5.575 -0.121,-0.761 -0.186,-1.333 -0.7,-1.425 -0.242,-0.03 -0.583,-0.125 -0.825,-0.125 -0.148,0 -0.2,-0.06 -0.2,-0.15 0,-0.15 0.128,-0.225 0.4,-0.225 0.426,0 1.082,0.043 1.625,0.075 0.543,0 1.017,0.025 1.075,0.025 0.121,0 0.879,-0.018 1.725,-0.05 0.85,-0.061 1.815,-0.1 2.3,-0.1 4.535,0 6.675,2.864 6.675,5.75 0,2.914 -2.65,4.768 -4.675,5.375 1.361,1.215 2.675,2.49 2.675,4.525 0,1.368 -1.134,3.95 -5.575,3.95 -1.241,0 -2.49,-0.075 -3.125,-0.075 -0.15,0 -1.866,0.075 -3.075,0.075 z m 41.475,0 c -0.3,0 -0.4,-0.073 -0.4,-0.225 0,-0.091 0.113,-0.2 0.2,-0.2 0.245,0 0.689,-0.045 0.9,-0.075 0.877,-0.121 1.04,-0.546 1.1,-1.425 0.059,-0.821 0.05,-1.541 0.05,-5.55 l 0,-4.575 c 0,-2.489 -0.002,-4.515 -0.15,-5.575 -0.121,-0.761 -0.184,-1.252 -0.7,-1.375 -0.242,-0.061 -0.56,-0.125 -0.8,-0.125 -0.152,0 -0.225,-0.108 -0.225,-0.2 0,-0.15 0.151,-0.225 0.425,-0.225 0.424,0 1.055,0.043 1.6,0.075 0.543,0 1.042,0.025 1.1,0.025 0.121,0 1.029,-0.058 2.175,-0.15 1.15,-0.059 2.574,-0.15 3.725,-0.15 4.533,0 6.929,1.79 8.075,2.975 1.483,1.518 2.85,4 2.85,7.25 0,3.068 -1.268,5.239 -2.6,6.575 -3.145,3.189 -7.99,2.95 -10.65,2.95 -1.573,0 -3.272,-0.075 -3.575,-0.075 -0.15,0 -1.891,0.075 -3.1,0.075 z m 47.45,0 c -0.303,0 -0.4,-0.073 -0.4,-0.225 0,-0.091 0.079,-0.2 0.2,-0.2 0.179,0 0.522,-0.04 0.825,-0.1 0.574,-0.122 0.764,-0.522 0.825,-1.4 0.058,-0.821 0.075,-1.541 0.075,-5.55 l 0,-4.575 c 0,-2.489 -0.031,-4.515 -0.15,-5.575 -0.092,-0.761 -0.189,-1.252 -0.7,-1.375 -0.245,-0.061 -0.583,-0.125 -0.825,-0.125 -0.15,0 -0.2,-0.108 -0.2,-0.2 0,-0.15 0.154,-0.225 0.425,-0.225 0.817,0 2.473,0.1 2.625,0.1 0.119,0 1.845,-0.1 3.325,-0.1 0.303,0 0.425,0.102 0.425,0.225 0,0.092 -0.074,0.2 -0.225,0.2 -0.24,0 -0.805,0.064 -1.2,0.125 -0.78296,0.123 -0.88496,0.614 -0.97496,1.375 -0.121,1.06 -0.1,3.086 -0.1,5.575 l 0,4.575 c 0,4.009 -0.007,4.729 0.025,5.55 0.058,0.91 0.199,1.273 0.925,1.425 0.30508,0.061 0.49108,0.075 0.67508,0.075 0.092,0 0.2,0.109 0.2,0.2 0,0.152 -0.12,0.225 -0.425,0.225 -0.814,0 -2.531,-0.075 -2.65,-0.075 -0.152,0 -1.823,0.075 -2.7,0.075 z m -103.15,-0.625 c 4.201,0 7.95,-3.254 7.95,-9.45 0,-7.47 -4.811,-8.725 -7.2,-8.725 -4.807,0 -8.4,3.762 -8.4,9.775 0,5.618 3.207,8.4 7.65,8.4 z m 41.825,0 c 4.203,0 7.95,-3.254 7.95,-9.45 0,-7.47 -4.786,-8.725 -7.175,-8.725 -4.809,0 -8.4,3.762 -8.4,9.775 0,5.618 3.184,8.4 7.625,8.4 z m -21.775,-0.2 c 2.662,0 3.75,-2.199 3.75,-4.175 0,-1.245 -0.449,-2.111 -1.025,-2.75 -0.543,-0.606 -1.117,-0.675 -2.6,-0.675 -0.998,0 -1.477,0.094 -1.625,0.125 -0.123,0.031 -0.2,0.093 -0.2,0.275 l 0,6.8 c 0,0.151 0.11,0.216 0.35,0.275 0.424,0.091 1.05,0.125 1.35,0.125 z m 41.85,-0.125 c 3.171,0 6.117,-0.349 8.625,-2.9 1.09,-1.093 2.5,-3.169 2.5,-6.45 0,-2.369 -0.687,-4.844 -2.075,-6.15 -1.604,-1.519 -3.776,-2.325 -6.225,-2.325 -3.14,0 -4.095,0.539 -4.425,1.025 -0.215,0.273 -0.268,1.213 -0.3,1.85 -0.029,0.487 -0.025,2.891 -0.025,5.625 l 0,8.625 c 0,0.305 0.083,0.435 0.325,0.525 0.238,0.091 1.086,0.175 1.6,0.175 z m -43.4,-8.325 c 0.424,0 1.768,0.011 2.1,-0.05 0.635,-0.12 1.471,-0.097 2.375,-0.675 2.086,-1.337 2.55,-3.547 2.55,-4.7 0,-3.311 -2.147,-4 -3.9,-4 -0.485,0 -1.6,0.04 -2.325,0.375 -0.818,0.393 -0.81,0.706 -0.9,1.95 -0.031,0.396 -0.05,3.495 -0.05,5.5 l 0,1.425 c 0,0.12 0.061,0.175 0.15,0.175 z"
       id="path26-2-2-7-6" /></g></svg>